M48
;DRILL file {KiCad 4.0.2+dfsg1-stable} date Thu 29 Mar 2018 09:38:34 PM EDT
;FORMAT={3:3/ absolute / metric / suppress leading zeros}
FMAT,2
METRIC,TZ
T1C0.330
T2C1.016
%
G90
G05
M71
T1
X34300Y-53000
X34300Y-62350
X36100Y-62400
X37000Y-67146
X37000Y-67146
X37400Y-48000
X37600Y-59850
X38700Y-75250
X38750Y-68000
X39600Y-45850
X40100Y-76600
X40250Y-52250
X42750Y-50300
X43000Y-54400
X44900Y-84400
X46500Y-56150
X46650Y-52950
X48600Y-74400
X49900Y-52950
X56950Y-63150
X58950Y-76900
X59550Y-54500
X63750Y-55950
X64500Y-75050
X68300Y-68950
X69250Y-61100
X69950Y-64600
X71000Y-54500
X72950Y-69450
X73500Y-74650
X76050Y-52200
X76100Y-64350
X76750Y-61500
X78300Y-69700
X78350Y-65850
X80850Y-74550
X82200Y-56000
X83200Y-72600
X83950Y-74000
X84250Y-56400
X87050Y-74050
X87500Y-76050
X91250Y-71450
X95300Y-74000
X97550Y-59500
X101300Y-62800
X108150Y-62550
T2
X31000Y-54920
X31000Y-57460
X31000Y-60000
X31000Y-62540
X31000Y-65080
X31000Y-71380
X31000Y-73920
X31000Y-76460
X31000Y-79000
X31000Y-81540
X31460Y-45000
X34000Y-45000
X34920Y-90000
X37460Y-90000
X40000Y-90000
X42540Y-90000
X43060Y-44460
X43060Y-47000
X45000Y-61460
X45000Y-64000
X45000Y-66540
X45000Y-69080
X45000Y-71620
X45080Y-90000
X45600Y-44460
X45600Y-47000
X48140Y-44460
X48140Y-47000
X50680Y-44460
X50680Y-47000
X53220Y-44460
X53220Y-47000
X54380Y-90000
X55760Y-44460
X55760Y-47000
X56920Y-90000
X58300Y-44460
X58300Y-47000
X59460Y-90000
X60840Y-44460
X60840Y-47000
X62000Y-90000
X63380Y-44460
X63380Y-47000
X64540Y-90000
X65920Y-44460
X65920Y-47000
X68460Y-44460
X68460Y-47000
X71000Y-44460
X71000Y-47000
X73540Y-44460
X73540Y-47000
X74380Y-90000
X76080Y-44460
X76080Y-47000
X76920Y-90000
X78620Y-44460
X78620Y-47000
X79460Y-90000
X81160Y-44460
X81160Y-47000
X82000Y-90000
X83700Y-44460
X83700Y-47000
X84540Y-90000
X86240Y-44460
X86240Y-47000
X88780Y-44460
X88780Y-47000
X90000Y-58000
X91320Y-44460
X91320Y-47000
X92540Y-58000
X93380Y-90000
X95080Y-58000
X95920Y-90000
X98460Y-90000
X101000Y-90000
X103000Y-49460
X103000Y-52000
X103000Y-54540
X103000Y-57080
X103000Y-59620
X103000Y-68920
X103000Y-71460
X103000Y-74000
X103000Y-76540
X103000Y-79080
X103540Y-90000
T0
M30
