G04 #@! TF.FileFunction,Soldermask,Top*
%FSLAX46Y46*%
G04 Gerber Fmt 4.6, Leading zero omitted, Abs format (unit mm)*
G04 Created by KiCad (PCBNEW 4.0.2+dfsg1-stable) date Thu 29 Mar 2018 09:38:32 PM EDT*
%MOMM*%
G01*
G04 APERTURE LIST*
%ADD10C,0.100000*%
%ADD11R,2.127200X2.432000*%
%ADD12O,2.127200X2.432000*%
%ADD13R,2.432000X2.127200*%
%ADD14O,2.432000X2.127200*%
%ADD15R,2.432000X2.432000*%
%ADD16O,2.432000X2.432000*%
%ADD17R,2.127200X2.127200*%
%ADD18O,2.127200X2.127200*%
G04 APERTURE END LIST*
D10*
D11*
X84540000Y-90000000D03*
D12*
X82000000Y-90000000D03*
X79460000Y-90000000D03*
X76920000Y-90000000D03*
X74380000Y-90000000D03*
D13*
X31000000Y-81540000D03*
D14*
X31000000Y-79000000D03*
X31000000Y-76460000D03*
X31000000Y-73920000D03*
X31000000Y-71380000D03*
D13*
X103000000Y-49460000D03*
D14*
X103000000Y-52000000D03*
X103000000Y-54540000D03*
X103000000Y-57080000D03*
X103000000Y-59620000D03*
D13*
X103000000Y-68920000D03*
D14*
X103000000Y-71460000D03*
X103000000Y-74000000D03*
X103000000Y-76540000D03*
X103000000Y-79080000D03*
D11*
X103540000Y-90000000D03*
D12*
X101000000Y-90000000D03*
X98460000Y-90000000D03*
X95920000Y-90000000D03*
X93380000Y-90000000D03*
D11*
X64540000Y-90000000D03*
D12*
X62000000Y-90000000D03*
X59460000Y-90000000D03*
X56920000Y-90000000D03*
X54380000Y-90000000D03*
D11*
X45080000Y-90000000D03*
D12*
X42540000Y-90000000D03*
X40000000Y-90000000D03*
X37460000Y-90000000D03*
X34920000Y-90000000D03*
D13*
X31000000Y-65080000D03*
D14*
X31000000Y-62540000D03*
X31000000Y-60000000D03*
X31000000Y-57460000D03*
X31000000Y-54920000D03*
D15*
X31460000Y-45000000D03*
D16*
X34000000Y-45000000D03*
D17*
X43060000Y-47000000D03*
D18*
X43060000Y-44460000D03*
X45600000Y-47000000D03*
X45600000Y-44460000D03*
X48140000Y-47000000D03*
X48140000Y-44460000D03*
X50680000Y-47000000D03*
X50680000Y-44460000D03*
X53220000Y-47000000D03*
X53220000Y-44460000D03*
X55760000Y-47000000D03*
X55760000Y-44460000D03*
X58300000Y-47000000D03*
X58300000Y-44460000D03*
X60840000Y-47000000D03*
X60840000Y-44460000D03*
X63380000Y-47000000D03*
X63380000Y-44460000D03*
X65920000Y-47000000D03*
X65920000Y-44460000D03*
X68460000Y-47000000D03*
X68460000Y-44460000D03*
X71000000Y-47000000D03*
X71000000Y-44460000D03*
X73540000Y-47000000D03*
X73540000Y-44460000D03*
X76080000Y-47000000D03*
X76080000Y-44460000D03*
X78620000Y-47000000D03*
X78620000Y-44460000D03*
X81160000Y-47000000D03*
X81160000Y-44460000D03*
X83700000Y-47000000D03*
X83700000Y-44460000D03*
X86240000Y-47000000D03*
X86240000Y-44460000D03*
X88780000Y-47000000D03*
X88780000Y-44460000D03*
X91320000Y-47000000D03*
X91320000Y-44460000D03*
D11*
X90000000Y-58000000D03*
D12*
X92540000Y-58000000D03*
X95080000Y-58000000D03*
D13*
X45000000Y-61460000D03*
D14*
X45000000Y-64000000D03*
X45000000Y-66540000D03*
X45000000Y-69080000D03*
X45000000Y-71620000D03*
M02*
