G04 #@! TF.FileFunction,Copper,L2,Bot,Signal*
%FSLAX46Y46*%
G04 Gerber Fmt 4.6, Leading zero omitted, Abs format (unit mm)*
G04 Created by KiCad (PCBNEW 4.0.2+dfsg1-stable) date Thu 29 Mar 2018 09:38:32 PM EDT*
%MOMM*%
G01*
G04 APERTURE LIST*
%ADD10C,0.100000*%
%ADD11R,1.727200X2.032000*%
%ADD12O,1.727200X2.032000*%
%ADD13R,2.032000X1.727200*%
%ADD14O,2.032000X1.727200*%
%ADD15R,2.032000X2.032000*%
%ADD16O,2.032000X2.032000*%
%ADD17R,1.727200X1.727200*%
%ADD18O,1.727200X1.727200*%
%ADD19C,0.685800*%
%ADD20C,0.750000*%
%ADD21C,0.254000*%
G04 APERTURE END LIST*
D10*
D11*
X84540000Y-90000000D03*
D12*
X82000000Y-90000000D03*
X79460000Y-90000000D03*
X76920000Y-90000000D03*
X74380000Y-90000000D03*
D13*
X31000000Y-81540000D03*
D14*
X31000000Y-79000000D03*
X31000000Y-76460000D03*
X31000000Y-73920000D03*
X31000000Y-71380000D03*
D13*
X103000000Y-49460000D03*
D14*
X103000000Y-52000000D03*
X103000000Y-54540000D03*
X103000000Y-57080000D03*
X103000000Y-59620000D03*
D13*
X103000000Y-68920000D03*
D14*
X103000000Y-71460000D03*
X103000000Y-74000000D03*
X103000000Y-76540000D03*
X103000000Y-79080000D03*
D11*
X103540000Y-90000000D03*
D12*
X101000000Y-90000000D03*
X98460000Y-90000000D03*
X95920000Y-90000000D03*
X93380000Y-90000000D03*
D11*
X64540000Y-90000000D03*
D12*
X62000000Y-90000000D03*
X59460000Y-90000000D03*
X56920000Y-90000000D03*
X54380000Y-90000000D03*
D11*
X45080000Y-90000000D03*
D12*
X42540000Y-90000000D03*
X40000000Y-90000000D03*
X37460000Y-90000000D03*
X34920000Y-90000000D03*
D13*
X31000000Y-65080000D03*
D14*
X31000000Y-62540000D03*
X31000000Y-60000000D03*
X31000000Y-57460000D03*
X31000000Y-54920000D03*
D15*
X31460000Y-45000000D03*
D16*
X34000000Y-45000000D03*
D17*
X43060000Y-47000000D03*
D18*
X43060000Y-44460000D03*
X45600000Y-47000000D03*
X45600000Y-44460000D03*
X48140000Y-47000000D03*
X48140000Y-44460000D03*
X50680000Y-47000000D03*
X50680000Y-44460000D03*
X53220000Y-47000000D03*
X53220000Y-44460000D03*
X55760000Y-47000000D03*
X55760000Y-44460000D03*
X58300000Y-47000000D03*
X58300000Y-44460000D03*
X60840000Y-47000000D03*
X60840000Y-44460000D03*
X63380000Y-47000000D03*
X63380000Y-44460000D03*
X65920000Y-47000000D03*
X65920000Y-44460000D03*
X68460000Y-47000000D03*
X68460000Y-44460000D03*
X71000000Y-47000000D03*
X71000000Y-44460000D03*
X73540000Y-47000000D03*
X73540000Y-44460000D03*
X76080000Y-47000000D03*
X76080000Y-44460000D03*
X78620000Y-47000000D03*
X78620000Y-44460000D03*
X81160000Y-47000000D03*
X81160000Y-44460000D03*
X83700000Y-47000000D03*
X83700000Y-44460000D03*
X86240000Y-47000000D03*
X86240000Y-44460000D03*
X88780000Y-47000000D03*
X88780000Y-44460000D03*
X91320000Y-47000000D03*
X91320000Y-44460000D03*
D11*
X90000000Y-58000000D03*
D12*
X92540000Y-58000000D03*
X95080000Y-58000000D03*
D13*
X45000000Y-61460000D03*
D14*
X45000000Y-64000000D03*
X45000000Y-66540000D03*
X45000000Y-69080000D03*
X45000000Y-71620000D03*
D19*
X34300000Y-62350000D03*
X34300000Y-53000000D03*
X59550000Y-54500000D03*
X71000000Y-54500000D03*
X76050000Y-52200000D03*
X97550000Y-59500000D03*
X63750000Y-55950000D03*
X69250000Y-61100000D03*
X72950000Y-69450000D03*
X78300000Y-69700000D03*
X83950000Y-74000000D03*
X87050000Y-74050000D03*
X95300000Y-74000000D03*
X84250000Y-56400000D03*
X76100000Y-64350000D03*
X69950000Y-64600000D03*
X68300000Y-68950000D03*
X64500000Y-75050000D03*
X38700000Y-75250000D03*
X38750000Y-68000000D03*
X37000000Y-67146000D03*
X37000000Y-67146000D03*
X82200000Y-56000000D03*
X56950000Y-63150000D03*
X48600000Y-74400000D03*
X44900000Y-84400000D03*
X76750000Y-61500000D03*
X40100000Y-76600000D03*
X58950000Y-76900000D03*
X73500000Y-74650000D03*
X80850000Y-74550000D03*
X83200000Y-72600000D03*
X101300000Y-62800000D03*
X108150000Y-62550000D03*
X43000000Y-54400000D03*
X37600000Y-59850000D03*
X36100000Y-62400000D03*
X46500000Y-56150000D03*
X39600000Y-45850000D03*
X78350000Y-65850000D03*
X37400000Y-48000000D03*
X40250000Y-52250000D03*
X42750000Y-50300000D03*
X46650000Y-52950000D03*
X49900000Y-52950000D03*
X87500000Y-76050000D03*
X91250000Y-71450000D03*
D20*
X34300000Y-53000000D02*
X34300000Y-62350000D01*
X103000000Y-54540000D02*
X71010000Y-54490000D01*
X50680000Y-48080000D02*
X50680000Y-47000000D01*
X57100000Y-54500000D02*
X50680000Y-48080000D01*
X59550000Y-54500000D02*
X57100000Y-54500000D01*
X71010000Y-54490000D02*
X71000000Y-54500000D01*
X76080000Y-44460000D02*
X76080000Y-44070000D01*
X76080000Y-44070000D02*
X77650000Y-42500000D01*
X77650000Y-42500000D02*
X100350000Y-42500000D01*
X100350000Y-42500000D02*
X106300000Y-48450000D01*
X106300000Y-48450000D02*
X106300000Y-55480000D01*
X106300000Y-55480000D02*
X104700000Y-57080000D01*
X103000000Y-57080000D02*
X104700000Y-57080000D01*
X104700000Y-57080000D02*
X104780000Y-57080000D01*
X104710000Y-76540000D02*
X103000000Y-76540000D01*
X106500000Y-74750000D02*
X104710000Y-76540000D01*
X106500000Y-58800000D02*
X106500000Y-74750000D01*
X104780000Y-57080000D02*
X106500000Y-58800000D01*
X76920000Y-90000000D02*
X76920000Y-88930000D01*
X93920000Y-92000000D02*
X95920000Y-90000000D01*
X91350000Y-92000000D02*
X93920000Y-92000000D01*
X86950000Y-87600000D02*
X91350000Y-92000000D01*
X78250000Y-87600000D02*
X86950000Y-87600000D01*
X76920000Y-88930000D02*
X78250000Y-87600000D01*
X76080000Y-47000000D02*
X76080000Y-52170000D01*
X76080000Y-52170000D02*
X76050000Y-52200000D01*
X103000000Y-79080000D02*
X96300000Y-79080000D01*
X96300000Y-79080000D02*
X89380000Y-86000000D01*
X74380000Y-90000000D02*
X74380000Y-88970000D01*
X89380000Y-86000000D02*
X93380000Y-90000000D01*
X77350000Y-86000000D02*
X89380000Y-86000000D01*
X74380000Y-88970000D02*
X77350000Y-86000000D01*
X97670000Y-59620000D02*
X103000000Y-59620000D01*
X97550000Y-59500000D02*
X97670000Y-59620000D01*
X55760000Y-47960000D02*
X55760000Y-47000000D01*
X63750000Y-55950000D02*
X55760000Y-47960000D01*
X72050000Y-63900000D02*
X69250000Y-61100000D01*
X72050000Y-68550000D02*
X72050000Y-63900000D01*
X72950000Y-69450000D02*
X72050000Y-68550000D01*
X78450000Y-69700000D02*
X78300000Y-69700000D01*
X82750000Y-74000000D02*
X78450000Y-69700000D01*
X83950000Y-74000000D02*
X82750000Y-74000000D01*
X95250000Y-74050000D02*
X87050000Y-74050000D01*
X95300000Y-74000000D02*
X95250000Y-74050000D01*
X93210000Y-95250000D02*
X102750000Y-95250000D01*
X48750000Y-95250000D02*
X93210000Y-95250000D01*
X101460000Y-87000000D02*
X98460000Y-90000000D01*
X104000000Y-87000000D02*
X101460000Y-87000000D01*
X106000000Y-89000000D02*
X104000000Y-87000000D01*
X106000000Y-92000000D02*
X106000000Y-89000000D01*
X102750000Y-95250000D02*
X106000000Y-92000000D01*
X55760000Y-44460000D02*
X55760000Y-44360000D01*
X55760000Y-44360000D02*
X52800000Y-41400000D01*
X52800000Y-41400000D02*
X30450000Y-41400000D01*
X30450000Y-41400000D02*
X27650000Y-44200000D01*
X27650000Y-44200000D02*
X27650000Y-86050000D01*
X27650000Y-86050000D02*
X36850000Y-95250000D01*
X36850000Y-95250000D02*
X48750000Y-95250000D01*
X48750000Y-95250000D02*
X48800000Y-95250000D01*
X84250000Y-56400000D02*
X76300000Y-64350000D01*
X76300000Y-64350000D02*
X76100000Y-64350000D01*
X69950000Y-64600000D02*
X68300000Y-66250000D01*
X68300000Y-66250000D02*
X68300000Y-68950000D01*
X64500000Y-75050000D02*
X59460000Y-80090000D01*
X59460000Y-80090000D02*
X59460000Y-90000000D01*
X38750000Y-75300000D02*
X38750000Y-84000000D01*
X38700000Y-75250000D02*
X38750000Y-75300000D01*
X37460000Y-85290000D02*
X38750000Y-84000000D01*
X37460000Y-85290000D02*
X37460000Y-90000000D01*
X48140000Y-47000000D02*
X48140000Y-61760000D01*
X48140000Y-61760000D02*
X45900000Y-64000000D01*
X45900000Y-64000000D02*
X45000000Y-64000000D01*
X39142899Y-67657101D02*
X42800000Y-64000000D01*
X42800000Y-64000000D02*
X45000000Y-64000000D01*
X38750000Y-68000000D02*
X39092899Y-67657101D01*
X39092899Y-67657101D02*
X39142899Y-67657101D01*
X34920000Y-90000000D02*
X34920000Y-90770000D01*
X34920000Y-90770000D02*
X37450000Y-93300000D01*
X51080000Y-93300000D02*
X54380000Y-90000000D01*
X37450000Y-93300000D02*
X51080000Y-93300000D01*
X34920000Y-90000000D02*
X34920000Y-75300000D01*
X34920000Y-75300000D02*
X31000000Y-71380000D01*
X37696899Y-66803101D02*
X43040000Y-61460000D01*
X43040000Y-61460000D02*
X45000000Y-61460000D01*
X37000000Y-67146000D02*
X37342899Y-66803101D01*
X37342899Y-66803101D02*
X37696899Y-66803101D01*
X56950000Y-63150000D02*
X48600000Y-71500000D01*
X48600000Y-71500000D02*
X48600000Y-74400000D01*
X40000000Y-89300000D02*
X44900000Y-84400000D01*
X82200000Y-56000000D02*
X76750000Y-61450000D01*
X76750000Y-61500000D02*
X76750000Y-61450000D01*
X40000000Y-89300000D02*
X40000000Y-90000000D01*
X96100000Y-70200000D02*
X96100000Y-70150000D01*
X58650000Y-76600000D02*
X40100000Y-76600000D01*
X58950000Y-76900000D02*
X58650000Y-76600000D01*
X80750000Y-74650000D02*
X73500000Y-74650000D01*
X80850000Y-74550000D02*
X80750000Y-74650000D01*
X83300000Y-72500000D02*
X83200000Y-72600000D01*
X93800000Y-72500000D02*
X83300000Y-72500000D01*
X96100000Y-70200000D02*
X93800000Y-72500000D01*
X108150000Y-47900000D02*
X108150000Y-62550000D01*
X101250000Y-41000000D02*
X108150000Y-47900000D01*
X71250000Y-41000000D02*
X101250000Y-41000000D01*
X71250000Y-41000000D02*
X68460000Y-43790000D01*
X101300000Y-64950000D02*
X101300000Y-62800000D01*
X96100000Y-70150000D02*
X101300000Y-64950000D01*
X68460000Y-44460000D02*
X68460000Y-43790000D01*
X37600000Y-59850000D02*
X43000000Y-54450000D01*
X43000000Y-54450000D02*
X43000000Y-54400000D01*
X43060000Y-44460000D02*
X39290000Y-44460000D01*
X39290000Y-44460000D02*
X33625000Y-50125000D01*
X31460000Y-47960000D02*
X31460000Y-45000000D01*
X36250000Y-52750000D02*
X33625000Y-50125000D01*
X33625000Y-50125000D02*
X31460000Y-47960000D01*
X36250000Y-62250000D02*
X36250000Y-52750000D01*
X36100000Y-62400000D02*
X36250000Y-62250000D01*
X92540000Y-58000000D02*
X92540000Y-60910000D01*
X87600000Y-65850000D02*
X92540000Y-60910000D01*
X78300000Y-65850000D02*
X87600000Y-65850000D01*
X39700000Y-49350000D02*
X46500000Y-56150000D01*
X39700000Y-45950000D02*
X39700000Y-49350000D01*
X39600000Y-45850000D02*
X39700000Y-45950000D01*
X78350000Y-65850000D02*
X78300000Y-65850000D01*
X37400000Y-48000000D02*
X37500000Y-48100000D01*
X37500000Y-48100000D02*
X37500000Y-49500000D01*
X37500000Y-49500000D02*
X40250000Y-52250000D01*
X42750000Y-50300000D02*
X45400000Y-52950000D01*
X45400000Y-52950000D02*
X46650000Y-52950000D01*
X49900000Y-52950000D02*
X73000000Y-76050000D01*
X73000000Y-76050000D02*
X87500000Y-76050000D01*
X91250000Y-71450000D02*
X95080000Y-67620000D01*
X95080000Y-67620000D02*
X95080000Y-58000000D01*
D21*
G36*
X52956165Y-42984521D02*
X52646511Y-43046115D01*
X52160330Y-43370971D01*
X51950000Y-43685752D01*
X51739670Y-43370971D01*
X51253489Y-43046115D01*
X50680000Y-42932041D01*
X50106511Y-43046115D01*
X49620330Y-43370971D01*
X49404336Y-43694228D01*
X49346821Y-43571510D01*
X48914947Y-43177312D01*
X48499026Y-43005042D01*
X48267000Y-43126183D01*
X48267000Y-44333000D01*
X48287000Y-44333000D01*
X48287000Y-44587000D01*
X48267000Y-44587000D01*
X48267000Y-44607000D01*
X48013000Y-44607000D01*
X48013000Y-44587000D01*
X47993000Y-44587000D01*
X47993000Y-44333000D01*
X48013000Y-44333000D01*
X48013000Y-43126183D01*
X47780974Y-43005042D01*
X47365053Y-43177312D01*
X46933179Y-43571510D01*
X46875664Y-43694228D01*
X46659670Y-43370971D01*
X46173489Y-43046115D01*
X45600000Y-42932041D01*
X45026511Y-43046115D01*
X44540330Y-43370971D01*
X44330000Y-43685752D01*
X44119670Y-43370971D01*
X43633489Y-43046115D01*
X43060000Y-42932041D01*
X42486511Y-43046115D01*
X42000330Y-43370971D01*
X41947524Y-43450000D01*
X39290000Y-43450000D01*
X38903490Y-43526882D01*
X38575822Y-43745822D01*
X33625000Y-48696644D01*
X32470000Y-47541644D01*
X32470000Y-46663440D01*
X32476000Y-46663440D01*
X32711317Y-46619162D01*
X32927441Y-46480090D01*
X33038840Y-46317052D01*
X33135182Y-46406385D01*
X33617056Y-46605975D01*
X33873000Y-46486836D01*
X33873000Y-45127000D01*
X34127000Y-45127000D01*
X34127000Y-46486836D01*
X34382944Y-46605975D01*
X34864818Y-46406385D01*
X35337188Y-45968379D01*
X35605983Y-45382946D01*
X35487367Y-45127000D01*
X34127000Y-45127000D01*
X33873000Y-45127000D01*
X33853000Y-45127000D01*
X33853000Y-44873000D01*
X33873000Y-44873000D01*
X33873000Y-43513164D01*
X34127000Y-43513164D01*
X34127000Y-44873000D01*
X35487367Y-44873000D01*
X35605983Y-44617054D01*
X35337188Y-44031621D01*
X34864818Y-43593615D01*
X34382944Y-43394025D01*
X34127000Y-43513164D01*
X33873000Y-43513164D01*
X33617056Y-43394025D01*
X33135182Y-43593615D01*
X33037602Y-43684097D01*
X32940090Y-43532559D01*
X32727890Y-43387569D01*
X32476000Y-43336560D01*
X30444000Y-43336560D01*
X30208683Y-43380838D01*
X29992559Y-43519910D01*
X29847569Y-43732110D01*
X29796560Y-43984000D01*
X29796560Y-46016000D01*
X29840838Y-46251317D01*
X29979910Y-46467441D01*
X30192110Y-46612431D01*
X30444000Y-46663440D01*
X30450000Y-46663440D01*
X30450000Y-47960000D01*
X30526882Y-48346510D01*
X30745822Y-48674178D01*
X34097306Y-52025662D01*
X34075577Y-52034641D01*
X33913490Y-52066882D01*
X33777281Y-52157894D01*
X33746788Y-52170493D01*
X33723232Y-52194008D01*
X33585822Y-52285822D01*
X33494810Y-52422032D01*
X33471460Y-52445341D01*
X33458696Y-52476080D01*
X33366882Y-52613490D01*
X33334923Y-52774158D01*
X33322270Y-52804630D01*
X33322241Y-52837914D01*
X33290000Y-53000000D01*
X33290000Y-62350000D01*
X33321960Y-62510672D01*
X33321931Y-62543663D01*
X33334641Y-62574423D01*
X33366882Y-62736510D01*
X33457894Y-62872719D01*
X33470493Y-62903212D01*
X33494008Y-62926768D01*
X33585822Y-63064178D01*
X33722032Y-63155190D01*
X33745341Y-63178540D01*
X33776080Y-63191304D01*
X33913490Y-63283118D01*
X34074158Y-63315077D01*
X34104630Y-63327730D01*
X34137914Y-63327759D01*
X34300000Y-63360000D01*
X34460672Y-63328040D01*
X34493663Y-63328069D01*
X34524423Y-63315359D01*
X34686510Y-63283118D01*
X34822719Y-63192106D01*
X34853212Y-63179507D01*
X34876768Y-63155992D01*
X35014178Y-63064178D01*
X35105190Y-62927968D01*
X35128540Y-62904659D01*
X35141304Y-62873920D01*
X35183296Y-62811075D01*
X35257894Y-62922719D01*
X35270493Y-62953212D01*
X35294008Y-62976768D01*
X35385822Y-63114178D01*
X35522032Y-63205190D01*
X35545341Y-63228540D01*
X35576080Y-63241304D01*
X35713490Y-63333118D01*
X35874158Y-63365077D01*
X35904630Y-63377730D01*
X35937914Y-63377759D01*
X36100000Y-63410000D01*
X36260672Y-63378040D01*
X36293663Y-63378069D01*
X36324423Y-63365359D01*
X36486510Y-63333118D01*
X36622719Y-63242106D01*
X36653212Y-63229507D01*
X36676768Y-63205992D01*
X36814178Y-63114178D01*
X36964178Y-62964178D01*
X37183118Y-62636510D01*
X37260000Y-62250000D01*
X37260000Y-60792369D01*
X37374158Y-60815077D01*
X37404630Y-60827730D01*
X37437914Y-60827759D01*
X37600000Y-60860000D01*
X37760672Y-60828040D01*
X37793663Y-60828069D01*
X37824423Y-60815359D01*
X37986510Y-60783118D01*
X38122719Y-60692106D01*
X38153212Y-60679507D01*
X38176768Y-60655992D01*
X38314178Y-60564178D01*
X43714178Y-55164178D01*
X43863037Y-54941393D01*
X45785822Y-56864178D01*
X45922032Y-56955190D01*
X45945341Y-56978540D01*
X45976080Y-56991304D01*
X46113490Y-57083118D01*
X46274158Y-57115077D01*
X46304630Y-57127730D01*
X46337914Y-57127759D01*
X46500000Y-57160000D01*
X46660672Y-57128040D01*
X46693663Y-57128069D01*
X46724423Y-57115359D01*
X46886510Y-57083118D01*
X47022719Y-56992106D01*
X47053212Y-56979507D01*
X47076768Y-56955992D01*
X47130000Y-56920424D01*
X47130000Y-61341644D01*
X46663440Y-61808204D01*
X46663440Y-60596400D01*
X46619162Y-60361083D01*
X46480090Y-60144959D01*
X46267890Y-59999969D01*
X46016000Y-59948960D01*
X43984000Y-59948960D01*
X43748683Y-59993238D01*
X43532559Y-60132310D01*
X43387569Y-60344510D01*
X43366207Y-60450000D01*
X43040000Y-60450000D01*
X42653490Y-60526882D01*
X42325822Y-60745822D01*
X37262563Y-65809081D01*
X36956388Y-65869983D01*
X36628721Y-66088923D01*
X36285822Y-66431822D01*
X36194810Y-66568032D01*
X36171460Y-66591341D01*
X36158696Y-66622080D01*
X36066882Y-66759490D01*
X36034923Y-66920158D01*
X36022270Y-66950630D01*
X36022241Y-66983914D01*
X35990000Y-67146000D01*
X36021960Y-67306672D01*
X36021931Y-67339663D01*
X36034641Y-67370423D01*
X36066882Y-67532510D01*
X36157894Y-67668719D01*
X36170493Y-67699212D01*
X36194008Y-67722768D01*
X36285822Y-67860178D01*
X36422032Y-67951190D01*
X36445341Y-67974540D01*
X36476080Y-67987304D01*
X36613490Y-68079118D01*
X36774158Y-68111077D01*
X36804630Y-68123730D01*
X36837914Y-68123759D01*
X37000000Y-68156000D01*
X37160672Y-68124040D01*
X37193663Y-68124069D01*
X37224423Y-68111359D01*
X37386510Y-68079118D01*
X37522719Y-67988106D01*
X37553212Y-67975507D01*
X37576768Y-67951992D01*
X37714178Y-67860178D01*
X37774076Y-67800280D01*
X37772270Y-67804630D01*
X37772241Y-67837914D01*
X37740000Y-68000000D01*
X37771960Y-68160672D01*
X37771931Y-68193663D01*
X37784641Y-68224423D01*
X37816882Y-68386510D01*
X37907894Y-68522719D01*
X37920493Y-68553212D01*
X37944008Y-68576768D01*
X38035822Y-68714178D01*
X38172032Y-68805190D01*
X38195341Y-68828540D01*
X38226080Y-68841304D01*
X38363490Y-68933118D01*
X38524158Y-68965077D01*
X38554630Y-68977730D01*
X38587914Y-68977759D01*
X38750000Y-69010000D01*
X38910672Y-68978040D01*
X38943663Y-68978069D01*
X38974423Y-68965359D01*
X39136510Y-68933118D01*
X39272719Y-68842106D01*
X39303212Y-68829507D01*
X39326768Y-68805992D01*
X39464178Y-68714178D01*
X39706395Y-68471961D01*
X39857077Y-68371279D01*
X43218356Y-65010000D01*
X43722397Y-65010000D01*
X43755585Y-65059670D01*
X44070366Y-65270000D01*
X43755585Y-65480330D01*
X43430729Y-65966511D01*
X43316655Y-66540000D01*
X43430729Y-67113489D01*
X43755585Y-67599670D01*
X44065069Y-67806461D01*
X43649268Y-68177964D01*
X43395291Y-68705209D01*
X43392642Y-68720974D01*
X43513783Y-68953000D01*
X44873000Y-68953000D01*
X44873000Y-68933000D01*
X45127000Y-68933000D01*
X45127000Y-68953000D01*
X46486217Y-68953000D01*
X46607358Y-68720974D01*
X46604709Y-68705209D01*
X46350732Y-68177964D01*
X45934931Y-67806461D01*
X46244415Y-67599670D01*
X46569271Y-67113489D01*
X46683345Y-66540000D01*
X46569271Y-65966511D01*
X46244415Y-65480330D01*
X45929634Y-65270000D01*
X46244415Y-65059670D01*
X46363224Y-64881859D01*
X46614178Y-64714178D01*
X48854178Y-62474178D01*
X49073118Y-62146510D01*
X49150000Y-61760000D01*
X49150000Y-53610566D01*
X49185822Y-53664178D01*
X72285822Y-76764178D01*
X72613490Y-76983118D01*
X73000000Y-77060000D01*
X87500000Y-77060000D01*
X87660672Y-77028040D01*
X87693663Y-77028069D01*
X87724423Y-77015359D01*
X87886510Y-76983118D01*
X88022719Y-76892106D01*
X88053212Y-76879507D01*
X88076768Y-76855992D01*
X88214178Y-76764178D01*
X88305190Y-76627968D01*
X88328540Y-76604659D01*
X88341304Y-76573920D01*
X88433118Y-76436510D01*
X88465077Y-76275842D01*
X88477730Y-76245370D01*
X88477759Y-76212086D01*
X88510000Y-76050000D01*
X88478040Y-75889328D01*
X88478069Y-75856337D01*
X88465359Y-75825577D01*
X88433118Y-75663490D01*
X88342106Y-75527281D01*
X88329507Y-75496788D01*
X88305992Y-75473232D01*
X88214178Y-75335822D01*
X88077968Y-75244810D01*
X88054659Y-75221460D01*
X88023920Y-75208696D01*
X87886510Y-75116882D01*
X87725842Y-75084923D01*
X87695370Y-75072270D01*
X87662086Y-75072241D01*
X87600546Y-75060000D01*
X95250000Y-75060000D01*
X95636510Y-74983118D01*
X95964178Y-74764178D01*
X96014178Y-74714178D01*
X96105190Y-74577968D01*
X96128540Y-74554659D01*
X96141304Y-74523920D01*
X96233118Y-74386510D01*
X96265077Y-74225842D01*
X96277730Y-74195370D01*
X96277759Y-74162086D01*
X96310000Y-74000000D01*
X96278040Y-73839328D01*
X96278069Y-73806337D01*
X96265359Y-73775577D01*
X96233118Y-73613490D01*
X96142106Y-73477281D01*
X96129507Y-73446788D01*
X96105992Y-73423232D01*
X96014178Y-73285822D01*
X95877968Y-73194810D01*
X95854659Y-73171460D01*
X95823920Y-73158696D01*
X95686510Y-73066882D01*
X95525842Y-73034923D01*
X95495370Y-73022270D01*
X95462086Y-73022241D01*
X95300000Y-72990000D01*
X95139328Y-73021960D01*
X95106337Y-73021931D01*
X95075577Y-73034641D01*
X95048634Y-73040000D01*
X94688356Y-73040000D01*
X96814178Y-70914178D01*
X96914860Y-70763496D01*
X99621956Y-68056400D01*
X101336560Y-68056400D01*
X101336560Y-69783600D01*
X101380838Y-70018917D01*
X101519910Y-70235041D01*
X101732110Y-70380031D01*
X101826927Y-70399232D01*
X101649268Y-70557964D01*
X101395291Y-71085209D01*
X101392642Y-71100974D01*
X101513783Y-71333000D01*
X102873000Y-71333000D01*
X102873000Y-71313000D01*
X103127000Y-71313000D01*
X103127000Y-71333000D01*
X104486217Y-71333000D01*
X104607358Y-71100974D01*
X104604709Y-71085209D01*
X104350732Y-70557964D01*
X104175155Y-70401093D01*
X104251317Y-70386762D01*
X104467441Y-70247690D01*
X104612431Y-70035490D01*
X104663440Y-69783600D01*
X104663440Y-68056400D01*
X104619162Y-67821083D01*
X104480090Y-67604959D01*
X104267890Y-67459969D01*
X104016000Y-67408960D01*
X101984000Y-67408960D01*
X101748683Y-67453238D01*
X101532559Y-67592310D01*
X101387569Y-67804510D01*
X101336560Y-68056400D01*
X99621956Y-68056400D01*
X102014178Y-65664178D01*
X102233118Y-65336510D01*
X102310001Y-64950000D01*
X102310000Y-64949995D01*
X102310000Y-62800000D01*
X102278040Y-62639328D01*
X102278069Y-62606337D01*
X102265359Y-62575577D01*
X102233118Y-62413490D01*
X102142106Y-62277281D01*
X102129507Y-62246788D01*
X102105992Y-62223232D01*
X102014178Y-62085822D01*
X101877968Y-61994810D01*
X101854659Y-61971460D01*
X101823920Y-61958696D01*
X101686510Y-61866882D01*
X101525842Y-61834923D01*
X101495370Y-61822270D01*
X101462086Y-61822241D01*
X101300000Y-61790000D01*
X101139328Y-61821960D01*
X101106337Y-61821931D01*
X101075577Y-61834641D01*
X100913490Y-61866882D01*
X100777281Y-61957894D01*
X100746788Y-61970493D01*
X100723232Y-61994008D01*
X100585822Y-62085822D01*
X100494810Y-62222032D01*
X100471460Y-62245341D01*
X100458696Y-62276080D01*
X100366882Y-62413490D01*
X100334923Y-62574158D01*
X100322270Y-62604630D01*
X100322241Y-62637914D01*
X100290000Y-62800000D01*
X100290000Y-64531644D01*
X95385822Y-69435822D01*
X95285140Y-69586504D01*
X93381644Y-71490000D01*
X92638356Y-71490000D01*
X95794178Y-68334178D01*
X96013118Y-68006510D01*
X96090000Y-67620000D01*
X96090000Y-59277603D01*
X96139670Y-59244415D01*
X96464526Y-58758234D01*
X96578600Y-58184745D01*
X96578600Y-57815255D01*
X96464526Y-57241766D01*
X96139670Y-56755585D01*
X95653489Y-56430729D01*
X95080000Y-56316655D01*
X94506511Y-56430729D01*
X94020330Y-56755585D01*
X93810000Y-57070366D01*
X93599670Y-56755585D01*
X93113489Y-56430729D01*
X92540000Y-56316655D01*
X91966511Y-56430729D01*
X91480330Y-56755585D01*
X91465500Y-56777780D01*
X91401927Y-56624302D01*
X91223299Y-56445673D01*
X90989910Y-56349000D01*
X90285750Y-56349000D01*
X90127000Y-56507750D01*
X90127000Y-57873000D01*
X90147000Y-57873000D01*
X90147000Y-58127000D01*
X90127000Y-58127000D01*
X90127000Y-59492250D01*
X90285750Y-59651000D01*
X90989910Y-59651000D01*
X91223299Y-59554327D01*
X91401927Y-59375698D01*
X91465500Y-59222220D01*
X91480330Y-59244415D01*
X91530000Y-59277603D01*
X91530000Y-60491644D01*
X87181644Y-64840000D01*
X78300000Y-64840000D01*
X77913490Y-64916882D01*
X77585822Y-65135822D01*
X77366882Y-65463490D01*
X77290000Y-65850000D01*
X77366882Y-66236510D01*
X77585822Y-66564178D01*
X77913490Y-66783118D01*
X78300000Y-66860000D01*
X87600000Y-66860000D01*
X87986510Y-66783118D01*
X88314178Y-66564178D01*
X93254178Y-61624178D01*
X93473118Y-61296510D01*
X93550000Y-60910000D01*
X93550000Y-59277603D01*
X93599670Y-59244415D01*
X93810000Y-58929634D01*
X94020330Y-59244415D01*
X94070000Y-59277603D01*
X94070000Y-67201644D01*
X90535822Y-70735822D01*
X90444810Y-70872032D01*
X90421460Y-70895341D01*
X90408696Y-70926080D01*
X90316882Y-71063490D01*
X90284923Y-71224158D01*
X90272270Y-71254630D01*
X90272241Y-71287914D01*
X90240000Y-71450000D01*
X90247957Y-71490000D01*
X83300000Y-71490000D01*
X82913490Y-71566882D01*
X82585822Y-71785822D01*
X82485822Y-71885822D01*
X82394810Y-72022032D01*
X82371460Y-72045341D01*
X82358696Y-72076080D01*
X82316935Y-72138579D01*
X79164178Y-68985822D01*
X78836510Y-68766882D01*
X78450000Y-68690000D01*
X78300000Y-68690000D01*
X78139328Y-68721960D01*
X78106337Y-68721931D01*
X78075577Y-68734641D01*
X77913490Y-68766882D01*
X77777281Y-68857894D01*
X77746788Y-68870493D01*
X77723232Y-68894008D01*
X77585822Y-68985822D01*
X77494810Y-69122032D01*
X77471460Y-69145341D01*
X77458696Y-69176080D01*
X77366882Y-69313490D01*
X77334923Y-69474158D01*
X77322270Y-69504630D01*
X77322241Y-69537914D01*
X77290000Y-69700000D01*
X77321960Y-69860672D01*
X77321931Y-69893663D01*
X77334641Y-69924423D01*
X77366882Y-70086510D01*
X77457894Y-70222719D01*
X77470493Y-70253212D01*
X77494008Y-70276768D01*
X77585822Y-70414178D01*
X77722032Y-70505190D01*
X77745341Y-70528540D01*
X77776080Y-70541304D01*
X77913490Y-70633118D01*
X77965010Y-70643366D01*
X80864535Y-73542891D01*
X80850000Y-73540000D01*
X80689328Y-73571960D01*
X80656337Y-73571931D01*
X80625577Y-73584641D01*
X80463490Y-73616882D01*
X80428891Y-73640000D01*
X73500000Y-73640000D01*
X73339328Y-73671960D01*
X73306337Y-73671931D01*
X73275577Y-73684641D01*
X73113490Y-73716882D01*
X72977281Y-73807894D01*
X72946788Y-73820493D01*
X72923232Y-73844008D01*
X72785822Y-73935822D01*
X72694810Y-74072032D01*
X72671460Y-74095341D01*
X72658696Y-74126080D01*
X72596908Y-74218552D01*
X68331992Y-69953636D01*
X68460672Y-69928040D01*
X68493663Y-69928069D01*
X68524423Y-69915359D01*
X68686510Y-69883118D01*
X68822719Y-69792106D01*
X68853212Y-69779507D01*
X68876768Y-69755992D01*
X69014178Y-69664178D01*
X69105190Y-69527968D01*
X69128540Y-69504659D01*
X69141304Y-69473920D01*
X69233118Y-69336510D01*
X69265077Y-69175842D01*
X69277730Y-69145370D01*
X69277759Y-69112086D01*
X69310000Y-68950000D01*
X69310000Y-66668356D01*
X70664178Y-65314178D01*
X70755190Y-65177968D01*
X70778540Y-65154659D01*
X70791304Y-65123920D01*
X70883118Y-64986510D01*
X70915077Y-64825842D01*
X70927730Y-64795370D01*
X70927759Y-64762086D01*
X70960000Y-64600000D01*
X70928040Y-64439328D01*
X70928069Y-64406337D01*
X70915359Y-64375577D01*
X70883118Y-64213490D01*
X70792106Y-64077281D01*
X70787305Y-64065661D01*
X71040000Y-64318356D01*
X71040000Y-68550000D01*
X71116882Y-68936510D01*
X71335822Y-69264178D01*
X72235822Y-70164178D01*
X72372032Y-70255190D01*
X72395341Y-70278540D01*
X72426080Y-70291304D01*
X72563490Y-70383118D01*
X72724158Y-70415077D01*
X72754630Y-70427730D01*
X72787914Y-70427759D01*
X72950000Y-70460000D01*
X73110672Y-70428040D01*
X73143663Y-70428069D01*
X73174423Y-70415359D01*
X73336510Y-70383118D01*
X73472719Y-70292106D01*
X73503212Y-70279507D01*
X73526768Y-70255992D01*
X73664178Y-70164178D01*
X73755190Y-70027968D01*
X73778540Y-70004659D01*
X73791304Y-69973920D01*
X73883118Y-69836510D01*
X73915077Y-69675842D01*
X73927730Y-69645370D01*
X73927759Y-69612086D01*
X73960000Y-69450000D01*
X73928040Y-69289328D01*
X73928069Y-69256337D01*
X73915359Y-69225577D01*
X73883118Y-69063490D01*
X73792106Y-68927281D01*
X73779507Y-68896788D01*
X73755992Y-68873232D01*
X73664178Y-68735822D01*
X73060000Y-68131644D01*
X73060000Y-63900000D01*
X72983118Y-63513490D01*
X72764178Y-63185822D01*
X69964178Y-60385822D01*
X69827968Y-60294810D01*
X69804659Y-60271460D01*
X69773920Y-60258696D01*
X69636510Y-60166882D01*
X69475842Y-60134923D01*
X69445370Y-60122270D01*
X69412086Y-60122241D01*
X69250000Y-60090000D01*
X69089328Y-60121960D01*
X69056337Y-60121931D01*
X69025577Y-60134641D01*
X68863490Y-60166882D01*
X68727281Y-60257894D01*
X68696788Y-60270493D01*
X68673232Y-60294008D01*
X68535822Y-60385822D01*
X68444810Y-60522032D01*
X68421460Y-60545341D01*
X68408696Y-60576080D01*
X68316882Y-60713490D01*
X68284923Y-60874158D01*
X68272270Y-60904630D01*
X68272241Y-60937914D01*
X68240000Y-61100000D01*
X68271960Y-61260672D01*
X68271931Y-61293663D01*
X68284641Y-61324423D01*
X68316882Y-61486510D01*
X68407894Y-61622719D01*
X68420493Y-61653212D01*
X68444008Y-61676768D01*
X68535822Y-61814178D01*
X70484899Y-63763255D01*
X70473920Y-63758696D01*
X70336510Y-63666882D01*
X70175842Y-63634923D01*
X70145370Y-63622270D01*
X70112086Y-63622241D01*
X69950000Y-63590000D01*
X69789328Y-63621960D01*
X69756337Y-63621931D01*
X69725577Y-63634641D01*
X69563490Y-63666882D01*
X69427281Y-63757894D01*
X69396788Y-63770493D01*
X69373232Y-63794008D01*
X69235822Y-63885822D01*
X67585822Y-65535822D01*
X67366882Y-65863490D01*
X67290000Y-66250000D01*
X67290000Y-68911644D01*
X50614178Y-52235822D01*
X50477968Y-52144810D01*
X50454659Y-52121460D01*
X50423920Y-52108696D01*
X50286510Y-52016882D01*
X50125842Y-51984923D01*
X50095370Y-51972270D01*
X50062086Y-51972241D01*
X49900000Y-51940000D01*
X49739328Y-51971960D01*
X49706337Y-51971931D01*
X49675577Y-51984641D01*
X49513490Y-52016882D01*
X49377281Y-52107894D01*
X49346788Y-52120493D01*
X49323232Y-52144008D01*
X49185822Y-52235822D01*
X49150000Y-52289434D01*
X49150000Y-48122217D01*
X49199670Y-48089029D01*
X49410000Y-47774248D01*
X49620330Y-48089029D01*
X49679685Y-48128689D01*
X49746882Y-48466510D01*
X49965822Y-48794178D01*
X56385822Y-55214178D01*
X56713490Y-55433118D01*
X57100000Y-55510000D01*
X59550000Y-55510000D01*
X59710672Y-55478040D01*
X59743663Y-55478069D01*
X59774423Y-55465359D01*
X59936510Y-55433118D01*
X60072719Y-55342106D01*
X60103212Y-55329507D01*
X60126768Y-55305992D01*
X60264178Y-55214178D01*
X60355190Y-55077968D01*
X60378540Y-55054659D01*
X60391304Y-55023920D01*
X60483118Y-54886510D01*
X60515077Y-54725842D01*
X60527730Y-54695370D01*
X60527759Y-54662086D01*
X60560000Y-54500000D01*
X60528040Y-54339328D01*
X60528069Y-54306337D01*
X60515359Y-54275577D01*
X60483118Y-54113490D01*
X60479058Y-54107414D01*
X63035822Y-56664178D01*
X63172032Y-56755190D01*
X63195341Y-56778540D01*
X63226080Y-56791304D01*
X63363490Y-56883118D01*
X63524158Y-56915077D01*
X63554630Y-56927730D01*
X63587914Y-56927759D01*
X63750000Y-56960000D01*
X63910672Y-56928040D01*
X63943663Y-56928069D01*
X63974423Y-56915359D01*
X64136510Y-56883118D01*
X64272719Y-56792106D01*
X64303212Y-56779507D01*
X64326768Y-56755992D01*
X64464178Y-56664178D01*
X64555190Y-56527968D01*
X64578540Y-56504659D01*
X64591304Y-56473920D01*
X64683118Y-56336510D01*
X64715077Y-56175842D01*
X64727730Y-56145370D01*
X64727759Y-56112086D01*
X64760000Y-55950000D01*
X64728040Y-55789328D01*
X64728069Y-55756337D01*
X64715359Y-55725577D01*
X64683118Y-55563490D01*
X64592106Y-55427281D01*
X64579507Y-55396788D01*
X64555992Y-55373232D01*
X64464178Y-55235822D01*
X57472549Y-48244193D01*
X57726511Y-48413885D01*
X58300000Y-48527959D01*
X58873489Y-48413885D01*
X59359670Y-48089029D01*
X59570000Y-47774248D01*
X59780330Y-48089029D01*
X60266511Y-48413885D01*
X60840000Y-48527959D01*
X61413489Y-48413885D01*
X61899670Y-48089029D01*
X62110000Y-47774248D01*
X62320330Y-48089029D01*
X62806511Y-48413885D01*
X63380000Y-48527959D01*
X63953489Y-48413885D01*
X64439670Y-48089029D01*
X64650000Y-47774248D01*
X64860330Y-48089029D01*
X65346511Y-48413885D01*
X65920000Y-48527959D01*
X66493489Y-48413885D01*
X66979670Y-48089029D01*
X67190000Y-47774248D01*
X67400330Y-48089029D01*
X67886511Y-48413885D01*
X68460000Y-48527959D01*
X69033489Y-48413885D01*
X69519670Y-48089029D01*
X69730000Y-47774248D01*
X69940330Y-48089029D01*
X70426511Y-48413885D01*
X71000000Y-48527959D01*
X71573489Y-48413885D01*
X72059670Y-48089029D01*
X72270000Y-47774248D01*
X72480330Y-48089029D01*
X72966511Y-48413885D01*
X73540000Y-48527959D01*
X74113489Y-48413885D01*
X74599670Y-48089029D01*
X74810000Y-47774248D01*
X75020330Y-48089029D01*
X75070000Y-48122217D01*
X75070000Y-52049181D01*
X75040000Y-52200000D01*
X75071960Y-52360672D01*
X75071931Y-52393663D01*
X75084641Y-52424423D01*
X75116882Y-52586510D01*
X75207894Y-52722719D01*
X75220493Y-52753212D01*
X75244008Y-52776768D01*
X75335822Y-52914178D01*
X75472032Y-53005190D01*
X75495341Y-53028540D01*
X75526080Y-53041304D01*
X75663490Y-53133118D01*
X75824158Y-53165077D01*
X75854630Y-53177730D01*
X75887914Y-53177759D01*
X76050000Y-53210000D01*
X76210672Y-53178040D01*
X76243663Y-53178069D01*
X76274423Y-53165359D01*
X76436510Y-53133118D01*
X76572719Y-53042106D01*
X76603212Y-53029507D01*
X76626768Y-53005992D01*
X76764178Y-52914178D01*
X76794178Y-52884178D01*
X77013118Y-52556511D01*
X77090000Y-52170000D01*
X77090000Y-48596400D01*
X101336560Y-48596400D01*
X101336560Y-50323600D01*
X101380838Y-50558917D01*
X101519910Y-50775041D01*
X101732110Y-50920031D01*
X101826927Y-50939232D01*
X101649268Y-51097964D01*
X101395291Y-51625209D01*
X101392642Y-51640974D01*
X101513783Y-51873000D01*
X102873000Y-51873000D01*
X102873000Y-51853000D01*
X103127000Y-51853000D01*
X103127000Y-51873000D01*
X104486217Y-51873000D01*
X104607358Y-51640974D01*
X104604709Y-51625209D01*
X104350732Y-51097964D01*
X104175155Y-50941093D01*
X104251317Y-50926762D01*
X104467441Y-50787690D01*
X104612431Y-50575490D01*
X104663440Y-50323600D01*
X104663440Y-48596400D01*
X104619162Y-48361083D01*
X104480090Y-48144959D01*
X104267890Y-47999969D01*
X104016000Y-47948960D01*
X101984000Y-47948960D01*
X101748683Y-47993238D01*
X101532559Y-48132310D01*
X101387569Y-48344510D01*
X101336560Y-48596400D01*
X77090000Y-48596400D01*
X77090000Y-48122217D01*
X77139670Y-48089029D01*
X77350000Y-47774248D01*
X77560330Y-48089029D01*
X78046511Y-48413885D01*
X78620000Y-48527959D01*
X79193489Y-48413885D01*
X79679670Y-48089029D01*
X79890000Y-47774248D01*
X80100330Y-48089029D01*
X80586511Y-48413885D01*
X81160000Y-48527959D01*
X81733489Y-48413885D01*
X82219670Y-48089029D01*
X82430000Y-47774248D01*
X82640330Y-48089029D01*
X83126511Y-48413885D01*
X83700000Y-48527959D01*
X84273489Y-48413885D01*
X84759670Y-48089029D01*
X84970000Y-47774248D01*
X85180330Y-48089029D01*
X85666511Y-48413885D01*
X86240000Y-48527959D01*
X86813489Y-48413885D01*
X87299670Y-48089029D01*
X87510000Y-47774248D01*
X87720330Y-48089029D01*
X88206511Y-48413885D01*
X88780000Y-48527959D01*
X89353489Y-48413885D01*
X89839670Y-48089029D01*
X90050000Y-47774248D01*
X90260330Y-48089029D01*
X90746511Y-48413885D01*
X91320000Y-48527959D01*
X91893489Y-48413885D01*
X92379670Y-48089029D01*
X92704526Y-47602848D01*
X92818600Y-47029359D01*
X92818600Y-46970641D01*
X92704526Y-46397152D01*
X92379670Y-45910971D01*
X92108828Y-45730000D01*
X92379670Y-45549029D01*
X92704526Y-45062848D01*
X92818600Y-44489359D01*
X92818600Y-44430641D01*
X92704526Y-43857152D01*
X92472566Y-43510000D01*
X99931644Y-43510000D01*
X105290000Y-48868356D01*
X105290000Y-55061644D01*
X104281644Y-56070000D01*
X104277603Y-56070000D01*
X104244415Y-56020330D01*
X103929634Y-55810000D01*
X104244415Y-55599670D01*
X104569271Y-55113489D01*
X104683345Y-54540000D01*
X104569271Y-53966511D01*
X104244415Y-53480330D01*
X103934931Y-53273539D01*
X104350732Y-52902036D01*
X104604709Y-52374791D01*
X104607358Y-52359026D01*
X104486217Y-52127000D01*
X103127000Y-52127000D01*
X103127000Y-52147000D01*
X102873000Y-52147000D01*
X102873000Y-52127000D01*
X101513783Y-52127000D01*
X101392642Y-52359026D01*
X101395291Y-52374791D01*
X101649268Y-52902036D01*
X102065069Y-53273539D01*
X101755585Y-53480330D01*
X101723730Y-53528004D01*
X71011579Y-53480001D01*
X71010789Y-53480157D01*
X71010000Y-53480000D01*
X70817556Y-53518280D01*
X70624949Y-53556279D01*
X70624279Y-53556725D01*
X70623490Y-53556882D01*
X70464268Y-53663271D01*
X70446788Y-53670493D01*
X70433468Y-53683790D01*
X70296939Y-53774707D01*
X70296491Y-53775375D01*
X70295822Y-53775822D01*
X70285822Y-53785822D01*
X70194810Y-53922032D01*
X70171460Y-53945341D01*
X70158696Y-53976080D01*
X70066882Y-54113490D01*
X70034923Y-54274158D01*
X70022270Y-54304630D01*
X70022241Y-54337914D01*
X69990000Y-54500000D01*
X70021960Y-54660672D01*
X70021931Y-54693663D01*
X70034641Y-54724423D01*
X70066882Y-54886510D01*
X70157894Y-55022719D01*
X70170493Y-55053212D01*
X70194008Y-55076768D01*
X70285822Y-55214178D01*
X70422032Y-55305190D01*
X70445341Y-55328540D01*
X70476080Y-55341304D01*
X70613490Y-55433118D01*
X70774158Y-55465077D01*
X70804630Y-55477730D01*
X70837914Y-55477759D01*
X71000000Y-55510000D01*
X71049952Y-55500064D01*
X81255629Y-55516015D01*
X76035822Y-60735822D01*
X75816882Y-61063490D01*
X75740000Y-61450000D01*
X75740000Y-61500000D01*
X75771960Y-61660672D01*
X75771931Y-61693663D01*
X75784641Y-61724423D01*
X75816882Y-61886510D01*
X75907894Y-62022719D01*
X75920493Y-62053212D01*
X75944008Y-62076768D01*
X76035822Y-62214178D01*
X76172032Y-62305190D01*
X76195341Y-62328540D01*
X76226080Y-62341304D01*
X76363490Y-62433118D01*
X76524158Y-62465077D01*
X76554630Y-62477730D01*
X76587914Y-62477759D01*
X76718008Y-62503636D01*
X75827425Y-63394219D01*
X75713490Y-63416882D01*
X75577281Y-63507894D01*
X75546788Y-63520493D01*
X75523232Y-63544008D01*
X75385822Y-63635822D01*
X75294810Y-63772032D01*
X75271460Y-63795341D01*
X75258696Y-63826080D01*
X75166882Y-63963490D01*
X75134923Y-64124158D01*
X75122270Y-64154630D01*
X75122241Y-64187914D01*
X75090000Y-64350000D01*
X75121960Y-64510672D01*
X75121931Y-64543663D01*
X75134641Y-64574423D01*
X75166882Y-64736510D01*
X75257894Y-64872719D01*
X75270493Y-64903212D01*
X75294008Y-64926768D01*
X75385822Y-65064178D01*
X75522032Y-65155190D01*
X75545341Y-65178540D01*
X75576080Y-65191304D01*
X75713490Y-65283118D01*
X75874158Y-65315077D01*
X75904630Y-65327730D01*
X75937914Y-65327759D01*
X76100000Y-65360000D01*
X76300000Y-65360000D01*
X76686510Y-65283118D01*
X77014178Y-65064178D01*
X83792606Y-58285750D01*
X88501400Y-58285750D01*
X88501400Y-59142309D01*
X88598073Y-59375698D01*
X88776701Y-59554327D01*
X89010090Y-59651000D01*
X89714250Y-59651000D01*
X89873000Y-59492250D01*
X89873000Y-58127000D01*
X88660150Y-58127000D01*
X88501400Y-58285750D01*
X83792606Y-58285750D01*
X84964178Y-57114178D01*
X85055190Y-56977968D01*
X85078540Y-56954659D01*
X85091304Y-56923920D01*
X85135556Y-56857691D01*
X88501400Y-56857691D01*
X88501400Y-57714250D01*
X88660150Y-57873000D01*
X89873000Y-57873000D01*
X89873000Y-56507750D01*
X89714250Y-56349000D01*
X89010090Y-56349000D01*
X88776701Y-56445673D01*
X88598073Y-56624302D01*
X88501400Y-56857691D01*
X85135556Y-56857691D01*
X85183118Y-56786510D01*
X85215077Y-56625842D01*
X85227730Y-56595370D01*
X85227759Y-56562086D01*
X85260000Y-56400000D01*
X85228040Y-56239328D01*
X85228069Y-56206337D01*
X85215359Y-56175577D01*
X85183118Y-56013490D01*
X85092106Y-55877281D01*
X85079507Y-55846788D01*
X85055992Y-55823232D01*
X84964178Y-55685822D01*
X84827968Y-55594810D01*
X84804659Y-55571460D01*
X84773920Y-55558696D01*
X84718143Y-55521427D01*
X101721062Y-55548003D01*
X101755585Y-55599670D01*
X102070366Y-55810000D01*
X101755585Y-56020330D01*
X101430729Y-56506511D01*
X101316655Y-57080000D01*
X101430729Y-57653489D01*
X101755585Y-58139670D01*
X102070366Y-58350000D01*
X101755585Y-58560330D01*
X101722397Y-58610000D01*
X98001041Y-58610000D01*
X97936510Y-58566882D01*
X97775842Y-58534923D01*
X97745370Y-58522270D01*
X97712086Y-58522241D01*
X97550000Y-58490000D01*
X97389328Y-58521960D01*
X97356337Y-58521931D01*
X97325577Y-58534641D01*
X97163490Y-58566882D01*
X97027281Y-58657894D01*
X96996788Y-58670493D01*
X96973232Y-58694008D01*
X96835822Y-58785822D01*
X96744810Y-58922032D01*
X96721460Y-58945341D01*
X96708696Y-58976080D01*
X96616882Y-59113490D01*
X96584923Y-59274158D01*
X96572270Y-59304630D01*
X96572241Y-59337914D01*
X96540000Y-59500000D01*
X96571960Y-59660672D01*
X96571931Y-59693663D01*
X96584641Y-59724423D01*
X96616882Y-59886510D01*
X96707894Y-60022719D01*
X96720493Y-60053212D01*
X96744008Y-60076768D01*
X96835822Y-60214178D01*
X96955822Y-60334178D01*
X97283490Y-60553118D01*
X97670000Y-60630000D01*
X101722397Y-60630000D01*
X101755585Y-60679670D01*
X102241766Y-61004526D01*
X102815255Y-61118600D01*
X103184745Y-61118600D01*
X103758234Y-61004526D01*
X104244415Y-60679670D01*
X104569271Y-60193489D01*
X104683345Y-59620000D01*
X104569271Y-59046511D01*
X104244415Y-58560330D01*
X103929634Y-58350000D01*
X104244415Y-58139670D01*
X104277603Y-58090000D01*
X104361644Y-58090000D01*
X105490000Y-59218356D01*
X105490000Y-74331644D01*
X104291644Y-75530000D01*
X104277603Y-75530000D01*
X104244415Y-75480330D01*
X103929634Y-75270000D01*
X104244415Y-75059670D01*
X104569271Y-74573489D01*
X104683345Y-74000000D01*
X104569271Y-73426511D01*
X104244415Y-72940330D01*
X103934931Y-72733539D01*
X104350732Y-72362036D01*
X104604709Y-71834791D01*
X104607358Y-71819026D01*
X104486217Y-71587000D01*
X103127000Y-71587000D01*
X103127000Y-71607000D01*
X102873000Y-71607000D01*
X102873000Y-71587000D01*
X101513783Y-71587000D01*
X101392642Y-71819026D01*
X101395291Y-71834791D01*
X101649268Y-72362036D01*
X102065069Y-72733539D01*
X101755585Y-72940330D01*
X101430729Y-73426511D01*
X101316655Y-74000000D01*
X101430729Y-74573489D01*
X101755585Y-75059670D01*
X102070366Y-75270000D01*
X101755585Y-75480330D01*
X101430729Y-75966511D01*
X101316655Y-76540000D01*
X101430729Y-77113489D01*
X101755585Y-77599670D01*
X102070366Y-77810000D01*
X101755585Y-78020330D01*
X101722397Y-78070000D01*
X96300000Y-78070000D01*
X95913490Y-78146882D01*
X95585822Y-78365822D01*
X88961644Y-84990000D01*
X77350000Y-84990000D01*
X76963490Y-85066882D01*
X76635822Y-85285822D01*
X73665822Y-88255822D01*
X73446882Y-88583490D01*
X73426801Y-88684443D01*
X73320330Y-88755585D01*
X72995474Y-89241766D01*
X72881400Y-89815255D01*
X72881400Y-90184745D01*
X72995474Y-90758234D01*
X73320330Y-91244415D01*
X73806511Y-91569271D01*
X74380000Y-91683345D01*
X74953489Y-91569271D01*
X75439670Y-91244415D01*
X75650000Y-90929634D01*
X75860330Y-91244415D01*
X76346511Y-91569271D01*
X76920000Y-91683345D01*
X77493489Y-91569271D01*
X77979670Y-91244415D01*
X78190000Y-90929634D01*
X78400330Y-91244415D01*
X78886511Y-91569271D01*
X79460000Y-91683345D01*
X80033489Y-91569271D01*
X80519670Y-91244415D01*
X80726461Y-90934931D01*
X81097964Y-91350732D01*
X81625209Y-91604709D01*
X81640974Y-91607358D01*
X81873000Y-91486217D01*
X81873000Y-90127000D01*
X81853000Y-90127000D01*
X81853000Y-89873000D01*
X81873000Y-89873000D01*
X81873000Y-89853000D01*
X82127000Y-89853000D01*
X82127000Y-89873000D01*
X82147000Y-89873000D01*
X82147000Y-90127000D01*
X82127000Y-90127000D01*
X82127000Y-91486217D01*
X82359026Y-91607358D01*
X82374791Y-91604709D01*
X82902036Y-91350732D01*
X83058907Y-91175155D01*
X83073238Y-91251317D01*
X83212310Y-91467441D01*
X83424510Y-91612431D01*
X83676400Y-91663440D01*
X85403600Y-91663440D01*
X85638917Y-91619162D01*
X85855041Y-91480090D01*
X86000031Y-91267890D01*
X86051040Y-91016000D01*
X86051040Y-88984000D01*
X86006762Y-88748683D01*
X85917522Y-88610000D01*
X86531644Y-88610000D01*
X90635822Y-92714178D01*
X90963490Y-92933118D01*
X91350000Y-93010000D01*
X93920000Y-93010000D01*
X94306510Y-92933118D01*
X94634178Y-92714178D01*
X95707316Y-91641040D01*
X95920000Y-91683345D01*
X96493489Y-91569271D01*
X96979670Y-91244415D01*
X97190000Y-90929634D01*
X97400330Y-91244415D01*
X97886511Y-91569271D01*
X98460000Y-91683345D01*
X99033489Y-91569271D01*
X99519670Y-91244415D01*
X99726461Y-90934931D01*
X100097964Y-91350732D01*
X100625209Y-91604709D01*
X100640974Y-91607358D01*
X100873000Y-91486217D01*
X100873000Y-90127000D01*
X100853000Y-90127000D01*
X100853000Y-89873000D01*
X100873000Y-89873000D01*
X100873000Y-89853000D01*
X101127000Y-89853000D01*
X101127000Y-89873000D01*
X101147000Y-89873000D01*
X101147000Y-90127000D01*
X101127000Y-90127000D01*
X101127000Y-91486217D01*
X101359026Y-91607358D01*
X101374791Y-91604709D01*
X101902036Y-91350732D01*
X102058907Y-91175155D01*
X102073238Y-91251317D01*
X102212310Y-91467441D01*
X102424510Y-91612431D01*
X102676400Y-91663440D01*
X104403600Y-91663440D01*
X104638917Y-91619162D01*
X104855041Y-91480090D01*
X104990000Y-91282571D01*
X104990000Y-91581644D01*
X102331644Y-94240000D01*
X51431912Y-94240000D01*
X51466510Y-94233118D01*
X51794178Y-94014178D01*
X54167316Y-91641040D01*
X54380000Y-91683345D01*
X54953489Y-91569271D01*
X55439670Y-91244415D01*
X55650000Y-90929634D01*
X55860330Y-91244415D01*
X56346511Y-91569271D01*
X56920000Y-91683345D01*
X57493489Y-91569271D01*
X57979670Y-91244415D01*
X58190000Y-90929634D01*
X58400330Y-91244415D01*
X58886511Y-91569271D01*
X59460000Y-91683345D01*
X60033489Y-91569271D01*
X60519670Y-91244415D01*
X60726461Y-90934931D01*
X61097964Y-91350732D01*
X61625209Y-91604709D01*
X61640974Y-91607358D01*
X61873000Y-91486217D01*
X61873000Y-90127000D01*
X61853000Y-90127000D01*
X61853000Y-89873000D01*
X61873000Y-89873000D01*
X61873000Y-88513783D01*
X62127000Y-88513783D01*
X62127000Y-89873000D01*
X62147000Y-89873000D01*
X62147000Y-90127000D01*
X62127000Y-90127000D01*
X62127000Y-91486217D01*
X62359026Y-91607358D01*
X62374791Y-91604709D01*
X62902036Y-91350732D01*
X63058907Y-91175155D01*
X63073238Y-91251317D01*
X63212310Y-91467441D01*
X63424510Y-91612431D01*
X63676400Y-91663440D01*
X65403600Y-91663440D01*
X65638917Y-91619162D01*
X65855041Y-91480090D01*
X66000031Y-91267890D01*
X66051040Y-91016000D01*
X66051040Y-88984000D01*
X66006762Y-88748683D01*
X65867690Y-88532559D01*
X65655490Y-88387569D01*
X65403600Y-88336560D01*
X63676400Y-88336560D01*
X63441083Y-88380838D01*
X63224959Y-88519910D01*
X63079969Y-88732110D01*
X63060768Y-88826927D01*
X62902036Y-88649268D01*
X62374791Y-88395291D01*
X62359026Y-88392642D01*
X62127000Y-88513783D01*
X61873000Y-88513783D01*
X61640974Y-88392642D01*
X61625209Y-88395291D01*
X61097964Y-88649268D01*
X60726461Y-89065069D01*
X60519670Y-88755585D01*
X60470000Y-88722397D01*
X60470000Y-80508356D01*
X65214178Y-75764178D01*
X65305190Y-75627968D01*
X65328540Y-75604659D01*
X65341304Y-75573920D01*
X65433118Y-75436510D01*
X65465077Y-75275842D01*
X65477730Y-75245370D01*
X65477759Y-75212086D01*
X65510000Y-75050000D01*
X65478040Y-74889328D01*
X65478069Y-74856337D01*
X65465359Y-74825577D01*
X65433118Y-74663490D01*
X65342106Y-74527281D01*
X65329507Y-74496788D01*
X65305992Y-74473232D01*
X65214178Y-74335822D01*
X65077968Y-74244810D01*
X65054659Y-74221460D01*
X65023920Y-74208696D01*
X64886510Y-74116882D01*
X64725842Y-74084923D01*
X64695370Y-74072270D01*
X64662086Y-74072241D01*
X64500000Y-74040000D01*
X64339328Y-74071960D01*
X64306337Y-74071931D01*
X64275577Y-74084641D01*
X64113490Y-74116882D01*
X63977281Y-74207894D01*
X63946788Y-74220493D01*
X63923232Y-74244008D01*
X63785822Y-74335822D01*
X58745822Y-79375822D01*
X58526882Y-79703490D01*
X58450000Y-80090000D01*
X58450000Y-88722397D01*
X58400330Y-88755585D01*
X58190000Y-89070366D01*
X57979670Y-88755585D01*
X57493489Y-88430729D01*
X56920000Y-88316655D01*
X56346511Y-88430729D01*
X55860330Y-88755585D01*
X55650000Y-89070366D01*
X55439670Y-88755585D01*
X54953489Y-88430729D01*
X54380000Y-88316655D01*
X53806511Y-88430729D01*
X53320330Y-88755585D01*
X52995474Y-89241766D01*
X52881400Y-89815255D01*
X52881400Y-90070244D01*
X50661644Y-92290000D01*
X37868356Y-92290000D01*
X37212463Y-91634107D01*
X37460000Y-91683345D01*
X38033489Y-91569271D01*
X38519670Y-91244415D01*
X38730000Y-90929634D01*
X38940330Y-91244415D01*
X39426511Y-91569271D01*
X40000000Y-91683345D01*
X40573489Y-91569271D01*
X41059670Y-91244415D01*
X41266461Y-90934931D01*
X41637964Y-91350732D01*
X42165209Y-91604709D01*
X42180974Y-91607358D01*
X42413000Y-91486217D01*
X42413000Y-90127000D01*
X42393000Y-90127000D01*
X42393000Y-89873000D01*
X42413000Y-89873000D01*
X42413000Y-88513783D01*
X42667000Y-88513783D01*
X42667000Y-89873000D01*
X42687000Y-89873000D01*
X42687000Y-90127000D01*
X42667000Y-90127000D01*
X42667000Y-91486217D01*
X42899026Y-91607358D01*
X42914791Y-91604709D01*
X43442036Y-91350732D01*
X43598907Y-91175155D01*
X43613238Y-91251317D01*
X43752310Y-91467441D01*
X43964510Y-91612431D01*
X44216400Y-91663440D01*
X45943600Y-91663440D01*
X46178917Y-91619162D01*
X46395041Y-91480090D01*
X46540031Y-91267890D01*
X46591040Y-91016000D01*
X46591040Y-88984000D01*
X46546762Y-88748683D01*
X46407690Y-88532559D01*
X46195490Y-88387569D01*
X45943600Y-88336560D01*
X44216400Y-88336560D01*
X43981083Y-88380838D01*
X43764959Y-88519910D01*
X43619969Y-88732110D01*
X43600768Y-88826927D01*
X43442036Y-88649268D01*
X42914791Y-88395291D01*
X42899026Y-88392642D01*
X42667000Y-88513783D01*
X42413000Y-88513783D01*
X42282636Y-88445720D01*
X45614178Y-85114178D01*
X45705191Y-84977967D01*
X45728540Y-84954659D01*
X45741303Y-84923921D01*
X45833118Y-84786511D01*
X45865077Y-84625841D01*
X45877730Y-84595370D01*
X45877759Y-84562086D01*
X45910000Y-84400000D01*
X45878040Y-84239328D01*
X45878069Y-84206337D01*
X45865359Y-84175577D01*
X45833118Y-84013490D01*
X45742106Y-83877281D01*
X45729507Y-83846788D01*
X45705992Y-83823232D01*
X45614178Y-83685822D01*
X45477968Y-83594810D01*
X45454659Y-83571460D01*
X45423920Y-83558696D01*
X45286510Y-83466882D01*
X45125842Y-83434923D01*
X45095370Y-83422270D01*
X45062086Y-83422241D01*
X44900000Y-83390000D01*
X44739328Y-83421960D01*
X44706337Y-83421931D01*
X44675577Y-83434641D01*
X44513489Y-83466882D01*
X44377280Y-83557894D01*
X44346788Y-83570493D01*
X44323233Y-83594007D01*
X44185822Y-83685822D01*
X39444492Y-88427152D01*
X39426511Y-88430729D01*
X38940330Y-88755585D01*
X38730000Y-89070366D01*
X38519670Y-88755585D01*
X38470000Y-88722397D01*
X38470000Y-85708356D01*
X39464175Y-84714180D01*
X39464178Y-84714178D01*
X39595423Y-84517756D01*
X39683118Y-84386511D01*
X39760000Y-84000000D01*
X39760000Y-77542369D01*
X39874158Y-77565077D01*
X39904630Y-77577730D01*
X39937914Y-77577759D01*
X40100000Y-77610000D01*
X58231644Y-77610000D01*
X58235822Y-77614178D01*
X58372032Y-77705190D01*
X58395341Y-77728540D01*
X58426080Y-77741304D01*
X58563490Y-77833118D01*
X58724158Y-77865077D01*
X58754630Y-77877730D01*
X58787914Y-77877759D01*
X58950000Y-77910000D01*
X59110672Y-77878040D01*
X59143663Y-77878069D01*
X59174423Y-77865359D01*
X59336510Y-77833118D01*
X59472719Y-77742106D01*
X59503212Y-77729507D01*
X59526768Y-77705992D01*
X59664178Y-77614178D01*
X59755190Y-77477968D01*
X59778540Y-77454659D01*
X59791304Y-77423920D01*
X59883118Y-77286510D01*
X59915077Y-77125842D01*
X59927730Y-77095370D01*
X59927759Y-77062086D01*
X59960000Y-76900000D01*
X59928040Y-76739328D01*
X59928069Y-76706337D01*
X59915359Y-76675577D01*
X59883118Y-76513490D01*
X59792106Y-76377281D01*
X59779507Y-76346788D01*
X59755992Y-76323232D01*
X59664178Y-76185822D01*
X59364178Y-75885822D01*
X59036510Y-75666882D01*
X58650000Y-75590000D01*
X40100000Y-75590000D01*
X39939328Y-75621960D01*
X39906337Y-75621931D01*
X39875577Y-75634641D01*
X39760000Y-75657631D01*
X39760000Y-75300000D01*
X39683118Y-74913490D01*
X39464178Y-74585822D01*
X39414178Y-74535822D01*
X39277968Y-74444810D01*
X39254659Y-74421460D01*
X39223920Y-74408696D01*
X39086510Y-74316882D01*
X38925842Y-74284923D01*
X38895370Y-74272270D01*
X38862086Y-74272241D01*
X38700000Y-74240000D01*
X38539328Y-74271960D01*
X38506337Y-74271931D01*
X38475577Y-74284641D01*
X38313490Y-74316882D01*
X38177281Y-74407894D01*
X38146788Y-74420493D01*
X38123232Y-74444008D01*
X37985822Y-74535822D01*
X37894810Y-74672032D01*
X37871460Y-74695341D01*
X37858696Y-74726080D01*
X37766882Y-74863490D01*
X37734923Y-75024158D01*
X37722270Y-75054630D01*
X37722241Y-75087914D01*
X37690000Y-75250000D01*
X37721960Y-75410672D01*
X37721931Y-75443663D01*
X37734641Y-75474423D01*
X37740000Y-75501366D01*
X37740000Y-83581645D01*
X36745822Y-84575822D01*
X36526882Y-84903490D01*
X36450000Y-85290000D01*
X36450000Y-88722397D01*
X36400330Y-88755585D01*
X36190000Y-89070366D01*
X35979670Y-88755585D01*
X35930000Y-88722397D01*
X35930000Y-75300000D01*
X35853118Y-74913490D01*
X35634178Y-74585822D01*
X32668356Y-71620000D01*
X43316655Y-71620000D01*
X43430729Y-72193489D01*
X43755585Y-72679670D01*
X44241766Y-73004526D01*
X44815255Y-73118600D01*
X45184745Y-73118600D01*
X45758234Y-73004526D01*
X46244415Y-72679670D01*
X46569271Y-72193489D01*
X46683345Y-71620000D01*
X46659476Y-71500000D01*
X47590000Y-71500000D01*
X47590000Y-74400000D01*
X47621960Y-74560672D01*
X47621931Y-74593663D01*
X47634641Y-74624423D01*
X47666882Y-74786510D01*
X47757894Y-74922719D01*
X47770493Y-74953212D01*
X47794008Y-74976768D01*
X47885822Y-75114178D01*
X48022032Y-75205190D01*
X48045341Y-75228540D01*
X48076080Y-75241304D01*
X48213490Y-75333118D01*
X48374158Y-75365077D01*
X48404630Y-75377730D01*
X48437914Y-75377759D01*
X48600000Y-75410000D01*
X48760672Y-75378040D01*
X48793663Y-75378069D01*
X48824423Y-75365359D01*
X48986510Y-75333118D01*
X49122719Y-75242106D01*
X49153212Y-75229507D01*
X49176768Y-75205992D01*
X49314178Y-75114178D01*
X49405190Y-74977968D01*
X49428540Y-74954659D01*
X49441304Y-74923920D01*
X49533118Y-74786510D01*
X49565077Y-74625842D01*
X49577730Y-74595370D01*
X49577759Y-74562086D01*
X49610000Y-74400000D01*
X49610000Y-71918356D01*
X57664178Y-63864178D01*
X57755190Y-63727968D01*
X57778540Y-63704659D01*
X57791304Y-63673920D01*
X57883118Y-63536510D01*
X57915077Y-63375842D01*
X57927730Y-63345370D01*
X57927759Y-63312086D01*
X57960000Y-63150000D01*
X57928040Y-62989328D01*
X57928069Y-62956337D01*
X57915359Y-62925577D01*
X57883118Y-62763490D01*
X57792106Y-62627281D01*
X57779507Y-62596788D01*
X57755992Y-62573232D01*
X57664178Y-62435822D01*
X57527968Y-62344810D01*
X57504659Y-62321460D01*
X57473920Y-62308696D01*
X57336510Y-62216882D01*
X57175842Y-62184923D01*
X57145370Y-62172270D01*
X57112086Y-62172241D01*
X56950000Y-62140000D01*
X56789328Y-62171960D01*
X56756337Y-62171931D01*
X56725577Y-62184641D01*
X56563490Y-62216882D01*
X56427281Y-62307894D01*
X56396788Y-62320493D01*
X56373232Y-62344008D01*
X56235822Y-62435822D01*
X47885822Y-70785822D01*
X47666882Y-71113490D01*
X47590000Y-71500000D01*
X46659476Y-71500000D01*
X46569271Y-71046511D01*
X46244415Y-70560330D01*
X45934931Y-70353539D01*
X46350732Y-69982036D01*
X46604709Y-69454791D01*
X46607358Y-69439026D01*
X46486217Y-69207000D01*
X45127000Y-69207000D01*
X45127000Y-69227000D01*
X44873000Y-69227000D01*
X44873000Y-69207000D01*
X43513783Y-69207000D01*
X43392642Y-69439026D01*
X43395291Y-69454791D01*
X43649268Y-69982036D01*
X44065069Y-70353539D01*
X43755585Y-70560330D01*
X43430729Y-71046511D01*
X43316655Y-71620000D01*
X32668356Y-71620000D01*
X32641040Y-71592684D01*
X32683345Y-71380000D01*
X32569271Y-70806511D01*
X32244415Y-70320330D01*
X31758234Y-69995474D01*
X31184745Y-69881400D01*
X30815255Y-69881400D01*
X30241766Y-69995474D01*
X29755585Y-70320330D01*
X29430729Y-70806511D01*
X29316655Y-71380000D01*
X29430729Y-71953489D01*
X29755585Y-72439670D01*
X30070366Y-72650000D01*
X29755585Y-72860330D01*
X29430729Y-73346511D01*
X29316655Y-73920000D01*
X29430729Y-74493489D01*
X29755585Y-74979670D01*
X30070366Y-75190000D01*
X29755585Y-75400330D01*
X29430729Y-75886511D01*
X29316655Y-76460000D01*
X29430729Y-77033489D01*
X29755585Y-77519670D01*
X30065069Y-77726461D01*
X29649268Y-78097964D01*
X29395291Y-78625209D01*
X29392642Y-78640974D01*
X29513783Y-78873000D01*
X30873000Y-78873000D01*
X30873000Y-78853000D01*
X31127000Y-78853000D01*
X31127000Y-78873000D01*
X32486217Y-78873000D01*
X32607358Y-78640974D01*
X32604709Y-78625209D01*
X32350732Y-78097964D01*
X31934931Y-77726461D01*
X32244415Y-77519670D01*
X32569271Y-77033489D01*
X32683345Y-76460000D01*
X32569271Y-75886511D01*
X32244415Y-75400330D01*
X31929634Y-75190000D01*
X32244415Y-74979670D01*
X32569271Y-74493489D01*
X32588494Y-74396850D01*
X33910000Y-75718356D01*
X33910000Y-88722397D01*
X33860330Y-88755585D01*
X33535474Y-89241766D01*
X33421400Y-89815255D01*
X33421400Y-90184745D01*
X33473121Y-90444765D01*
X28660000Y-85631644D01*
X28660000Y-80676400D01*
X29336560Y-80676400D01*
X29336560Y-82403600D01*
X29380838Y-82638917D01*
X29519910Y-82855041D01*
X29732110Y-83000031D01*
X29984000Y-83051040D01*
X32016000Y-83051040D01*
X32251317Y-83006762D01*
X32467441Y-82867690D01*
X32612431Y-82655490D01*
X32663440Y-82403600D01*
X32663440Y-80676400D01*
X32619162Y-80441083D01*
X32480090Y-80224959D01*
X32267890Y-80079969D01*
X32173073Y-80060768D01*
X32350732Y-79902036D01*
X32604709Y-79374791D01*
X32607358Y-79359026D01*
X32486217Y-79127000D01*
X31127000Y-79127000D01*
X31127000Y-79147000D01*
X30873000Y-79147000D01*
X30873000Y-79127000D01*
X29513783Y-79127000D01*
X29392642Y-79359026D01*
X29395291Y-79374791D01*
X29649268Y-79902036D01*
X29824845Y-80058907D01*
X29748683Y-80073238D01*
X29532559Y-80212310D01*
X29387569Y-80424510D01*
X29336560Y-80676400D01*
X28660000Y-80676400D01*
X28660000Y-64216400D01*
X29336560Y-64216400D01*
X29336560Y-65943600D01*
X29380838Y-66178917D01*
X29519910Y-66395041D01*
X29732110Y-66540031D01*
X29984000Y-66591040D01*
X32016000Y-66591040D01*
X32251317Y-66546762D01*
X32467441Y-66407690D01*
X32612431Y-66195490D01*
X32663440Y-65943600D01*
X32663440Y-64216400D01*
X32619162Y-63981083D01*
X32480090Y-63764959D01*
X32267890Y-63619969D01*
X32173073Y-63600768D01*
X32350732Y-63442036D01*
X32604709Y-62914791D01*
X32607358Y-62899026D01*
X32486217Y-62667000D01*
X31127000Y-62667000D01*
X31127000Y-62687000D01*
X30873000Y-62687000D01*
X30873000Y-62667000D01*
X29513783Y-62667000D01*
X29392642Y-62899026D01*
X29395291Y-62914791D01*
X29649268Y-63442036D01*
X29824845Y-63598907D01*
X29748683Y-63613238D01*
X29532559Y-63752310D01*
X29387569Y-63964510D01*
X29336560Y-64216400D01*
X28660000Y-64216400D01*
X28660000Y-54920000D01*
X29316655Y-54920000D01*
X29430729Y-55493489D01*
X29755585Y-55979670D01*
X30070366Y-56190000D01*
X29755585Y-56400330D01*
X29430729Y-56886511D01*
X29316655Y-57460000D01*
X29430729Y-58033489D01*
X29755585Y-58519670D01*
X30070366Y-58730000D01*
X29755585Y-58940330D01*
X29430729Y-59426511D01*
X29316655Y-60000000D01*
X29430729Y-60573489D01*
X29755585Y-61059670D01*
X30065069Y-61266461D01*
X29649268Y-61637964D01*
X29395291Y-62165209D01*
X29392642Y-62180974D01*
X29513783Y-62413000D01*
X30873000Y-62413000D01*
X30873000Y-62393000D01*
X31127000Y-62393000D01*
X31127000Y-62413000D01*
X32486217Y-62413000D01*
X32607358Y-62180974D01*
X32604709Y-62165209D01*
X32350732Y-61637964D01*
X31934931Y-61266461D01*
X32244415Y-61059670D01*
X32569271Y-60573489D01*
X32683345Y-60000000D01*
X32569271Y-59426511D01*
X32244415Y-58940330D01*
X31929634Y-58730000D01*
X32244415Y-58519670D01*
X32569271Y-58033489D01*
X32683345Y-57460000D01*
X32569271Y-56886511D01*
X32244415Y-56400330D01*
X31929634Y-56190000D01*
X32244415Y-55979670D01*
X32569271Y-55493489D01*
X32683345Y-54920000D01*
X32569271Y-54346511D01*
X32244415Y-53860330D01*
X31758234Y-53535474D01*
X31184745Y-53421400D01*
X30815255Y-53421400D01*
X30241766Y-53535474D01*
X29755585Y-53860330D01*
X29430729Y-54346511D01*
X29316655Y-54920000D01*
X28660000Y-54920000D01*
X28660000Y-44618356D01*
X30868356Y-42410000D01*
X52381644Y-42410000D01*
X52956165Y-42984521D01*
X52956165Y-42984521D01*
G37*
X52956165Y-42984521D02*
X52646511Y-43046115D01*
X52160330Y-43370971D01*
X51950000Y-43685752D01*
X51739670Y-43370971D01*
X51253489Y-43046115D01*
X50680000Y-42932041D01*
X50106511Y-43046115D01*
X49620330Y-43370971D01*
X49404336Y-43694228D01*
X49346821Y-43571510D01*
X48914947Y-43177312D01*
X48499026Y-43005042D01*
X48267000Y-43126183D01*
X48267000Y-44333000D01*
X48287000Y-44333000D01*
X48287000Y-44587000D01*
X48267000Y-44587000D01*
X48267000Y-44607000D01*
X48013000Y-44607000D01*
X48013000Y-44587000D01*
X47993000Y-44587000D01*
X47993000Y-44333000D01*
X48013000Y-44333000D01*
X48013000Y-43126183D01*
X47780974Y-43005042D01*
X47365053Y-43177312D01*
X46933179Y-43571510D01*
X46875664Y-43694228D01*
X46659670Y-43370971D01*
X46173489Y-43046115D01*
X45600000Y-42932041D01*
X45026511Y-43046115D01*
X44540330Y-43370971D01*
X44330000Y-43685752D01*
X44119670Y-43370971D01*
X43633489Y-43046115D01*
X43060000Y-42932041D01*
X42486511Y-43046115D01*
X42000330Y-43370971D01*
X41947524Y-43450000D01*
X39290000Y-43450000D01*
X38903490Y-43526882D01*
X38575822Y-43745822D01*
X33625000Y-48696644D01*
X32470000Y-47541644D01*
X32470000Y-46663440D01*
X32476000Y-46663440D01*
X32711317Y-46619162D01*
X32927441Y-46480090D01*
X33038840Y-46317052D01*
X33135182Y-46406385D01*
X33617056Y-46605975D01*
X33873000Y-46486836D01*
X33873000Y-45127000D01*
X34127000Y-45127000D01*
X34127000Y-46486836D01*
X34382944Y-46605975D01*
X34864818Y-46406385D01*
X35337188Y-45968379D01*
X35605983Y-45382946D01*
X35487367Y-45127000D01*
X34127000Y-45127000D01*
X33873000Y-45127000D01*
X33853000Y-45127000D01*
X33853000Y-44873000D01*
X33873000Y-44873000D01*
X33873000Y-43513164D01*
X34127000Y-43513164D01*
X34127000Y-44873000D01*
X35487367Y-44873000D01*
X35605983Y-44617054D01*
X35337188Y-44031621D01*
X34864818Y-43593615D01*
X34382944Y-43394025D01*
X34127000Y-43513164D01*
X33873000Y-43513164D01*
X33617056Y-43394025D01*
X33135182Y-43593615D01*
X33037602Y-43684097D01*
X32940090Y-43532559D01*
X32727890Y-43387569D01*
X32476000Y-43336560D01*
X30444000Y-43336560D01*
X30208683Y-43380838D01*
X29992559Y-43519910D01*
X29847569Y-43732110D01*
X29796560Y-43984000D01*
X29796560Y-46016000D01*
X29840838Y-46251317D01*
X29979910Y-46467441D01*
X30192110Y-46612431D01*
X30444000Y-46663440D01*
X30450000Y-46663440D01*
X30450000Y-47960000D01*
X30526882Y-48346510D01*
X30745822Y-48674178D01*
X34097306Y-52025662D01*
X34075577Y-52034641D01*
X33913490Y-52066882D01*
X33777281Y-52157894D01*
X33746788Y-52170493D01*
X33723232Y-52194008D01*
X33585822Y-52285822D01*
X33494810Y-52422032D01*
X33471460Y-52445341D01*
X33458696Y-52476080D01*
X33366882Y-52613490D01*
X33334923Y-52774158D01*
X33322270Y-52804630D01*
X33322241Y-52837914D01*
X33290000Y-53000000D01*
X33290000Y-62350000D01*
X33321960Y-62510672D01*
X33321931Y-62543663D01*
X33334641Y-62574423D01*
X33366882Y-62736510D01*
X33457894Y-62872719D01*
X33470493Y-62903212D01*
X33494008Y-62926768D01*
X33585822Y-63064178D01*
X33722032Y-63155190D01*
X33745341Y-63178540D01*
X33776080Y-63191304D01*
X33913490Y-63283118D01*
X34074158Y-63315077D01*
X34104630Y-63327730D01*
X34137914Y-63327759D01*
X34300000Y-63360000D01*
X34460672Y-63328040D01*
X34493663Y-63328069D01*
X34524423Y-63315359D01*
X34686510Y-63283118D01*
X34822719Y-63192106D01*
X34853212Y-63179507D01*
X34876768Y-63155992D01*
X35014178Y-63064178D01*
X35105190Y-62927968D01*
X35128540Y-62904659D01*
X35141304Y-62873920D01*
X35183296Y-62811075D01*
X35257894Y-62922719D01*
X35270493Y-62953212D01*
X35294008Y-62976768D01*
X35385822Y-63114178D01*
X35522032Y-63205190D01*
X35545341Y-63228540D01*
X35576080Y-63241304D01*
X35713490Y-63333118D01*
X35874158Y-63365077D01*
X35904630Y-63377730D01*
X35937914Y-63377759D01*
X36100000Y-63410000D01*
X36260672Y-63378040D01*
X36293663Y-63378069D01*
X36324423Y-63365359D01*
X36486510Y-63333118D01*
X36622719Y-63242106D01*
X36653212Y-63229507D01*
X36676768Y-63205992D01*
X36814178Y-63114178D01*
X36964178Y-62964178D01*
X37183118Y-62636510D01*
X37260000Y-62250000D01*
X37260000Y-60792369D01*
X37374158Y-60815077D01*
X37404630Y-60827730D01*
X37437914Y-60827759D01*
X37600000Y-60860000D01*
X37760672Y-60828040D01*
X37793663Y-60828069D01*
X37824423Y-60815359D01*
X37986510Y-60783118D01*
X38122719Y-60692106D01*
X38153212Y-60679507D01*
X38176768Y-60655992D01*
X38314178Y-60564178D01*
X43714178Y-55164178D01*
X43863037Y-54941393D01*
X45785822Y-56864178D01*
X45922032Y-56955190D01*
X45945341Y-56978540D01*
X45976080Y-56991304D01*
X46113490Y-57083118D01*
X46274158Y-57115077D01*
X46304630Y-57127730D01*
X46337914Y-57127759D01*
X46500000Y-57160000D01*
X46660672Y-57128040D01*
X46693663Y-57128069D01*
X46724423Y-57115359D01*
X46886510Y-57083118D01*
X47022719Y-56992106D01*
X47053212Y-56979507D01*
X47076768Y-56955992D01*
X47130000Y-56920424D01*
X47130000Y-61341644D01*
X46663440Y-61808204D01*
X46663440Y-60596400D01*
X46619162Y-60361083D01*
X46480090Y-60144959D01*
X46267890Y-59999969D01*
X46016000Y-59948960D01*
X43984000Y-59948960D01*
X43748683Y-59993238D01*
X43532559Y-60132310D01*
X43387569Y-60344510D01*
X43366207Y-60450000D01*
X43040000Y-60450000D01*
X42653490Y-60526882D01*
X42325822Y-60745822D01*
X37262563Y-65809081D01*
X36956388Y-65869983D01*
X36628721Y-66088923D01*
X36285822Y-66431822D01*
X36194810Y-66568032D01*
X36171460Y-66591341D01*
X36158696Y-66622080D01*
X36066882Y-66759490D01*
X36034923Y-66920158D01*
X36022270Y-66950630D01*
X36022241Y-66983914D01*
X35990000Y-67146000D01*
X36021960Y-67306672D01*
X36021931Y-67339663D01*
X36034641Y-67370423D01*
X36066882Y-67532510D01*
X36157894Y-67668719D01*
X36170493Y-67699212D01*
X36194008Y-67722768D01*
X36285822Y-67860178D01*
X36422032Y-67951190D01*
X36445341Y-67974540D01*
X36476080Y-67987304D01*
X36613490Y-68079118D01*
X36774158Y-68111077D01*
X36804630Y-68123730D01*
X36837914Y-68123759D01*
X37000000Y-68156000D01*
X37160672Y-68124040D01*
X37193663Y-68124069D01*
X37224423Y-68111359D01*
X37386510Y-68079118D01*
X37522719Y-67988106D01*
X37553212Y-67975507D01*
X37576768Y-67951992D01*
X37714178Y-67860178D01*
X37774076Y-67800280D01*
X37772270Y-67804630D01*
X37772241Y-67837914D01*
X37740000Y-68000000D01*
X37771960Y-68160672D01*
X37771931Y-68193663D01*
X37784641Y-68224423D01*
X37816882Y-68386510D01*
X37907894Y-68522719D01*
X37920493Y-68553212D01*
X37944008Y-68576768D01*
X38035822Y-68714178D01*
X38172032Y-68805190D01*
X38195341Y-68828540D01*
X38226080Y-68841304D01*
X38363490Y-68933118D01*
X38524158Y-68965077D01*
X38554630Y-68977730D01*
X38587914Y-68977759D01*
X38750000Y-69010000D01*
X38910672Y-68978040D01*
X38943663Y-68978069D01*
X38974423Y-68965359D01*
X39136510Y-68933118D01*
X39272719Y-68842106D01*
X39303212Y-68829507D01*
X39326768Y-68805992D01*
X39464178Y-68714178D01*
X39706395Y-68471961D01*
X39857077Y-68371279D01*
X43218356Y-65010000D01*
X43722397Y-65010000D01*
X43755585Y-65059670D01*
X44070366Y-65270000D01*
X43755585Y-65480330D01*
X43430729Y-65966511D01*
X43316655Y-66540000D01*
X43430729Y-67113489D01*
X43755585Y-67599670D01*
X44065069Y-67806461D01*
X43649268Y-68177964D01*
X43395291Y-68705209D01*
X43392642Y-68720974D01*
X43513783Y-68953000D01*
X44873000Y-68953000D01*
X44873000Y-68933000D01*
X45127000Y-68933000D01*
X45127000Y-68953000D01*
X46486217Y-68953000D01*
X46607358Y-68720974D01*
X46604709Y-68705209D01*
X46350732Y-68177964D01*
X45934931Y-67806461D01*
X46244415Y-67599670D01*
X46569271Y-67113489D01*
X46683345Y-66540000D01*
X46569271Y-65966511D01*
X46244415Y-65480330D01*
X45929634Y-65270000D01*
X46244415Y-65059670D01*
X46363224Y-64881859D01*
X46614178Y-64714178D01*
X48854178Y-62474178D01*
X49073118Y-62146510D01*
X49150000Y-61760000D01*
X49150000Y-53610566D01*
X49185822Y-53664178D01*
X72285822Y-76764178D01*
X72613490Y-76983118D01*
X73000000Y-77060000D01*
X87500000Y-77060000D01*
X87660672Y-77028040D01*
X87693663Y-77028069D01*
X87724423Y-77015359D01*
X87886510Y-76983118D01*
X88022719Y-76892106D01*
X88053212Y-76879507D01*
X88076768Y-76855992D01*
X88214178Y-76764178D01*
X88305190Y-76627968D01*
X88328540Y-76604659D01*
X88341304Y-76573920D01*
X88433118Y-76436510D01*
X88465077Y-76275842D01*
X88477730Y-76245370D01*
X88477759Y-76212086D01*
X88510000Y-76050000D01*
X88478040Y-75889328D01*
X88478069Y-75856337D01*
X88465359Y-75825577D01*
X88433118Y-75663490D01*
X88342106Y-75527281D01*
X88329507Y-75496788D01*
X88305992Y-75473232D01*
X88214178Y-75335822D01*
X88077968Y-75244810D01*
X88054659Y-75221460D01*
X88023920Y-75208696D01*
X87886510Y-75116882D01*
X87725842Y-75084923D01*
X87695370Y-75072270D01*
X87662086Y-75072241D01*
X87600546Y-75060000D01*
X95250000Y-75060000D01*
X95636510Y-74983118D01*
X95964178Y-74764178D01*
X96014178Y-74714178D01*
X96105190Y-74577968D01*
X96128540Y-74554659D01*
X96141304Y-74523920D01*
X96233118Y-74386510D01*
X96265077Y-74225842D01*
X96277730Y-74195370D01*
X96277759Y-74162086D01*
X96310000Y-74000000D01*
X96278040Y-73839328D01*
X96278069Y-73806337D01*
X96265359Y-73775577D01*
X96233118Y-73613490D01*
X96142106Y-73477281D01*
X96129507Y-73446788D01*
X96105992Y-73423232D01*
X96014178Y-73285822D01*
X95877968Y-73194810D01*
X95854659Y-73171460D01*
X95823920Y-73158696D01*
X95686510Y-73066882D01*
X95525842Y-73034923D01*
X95495370Y-73022270D01*
X95462086Y-73022241D01*
X95300000Y-72990000D01*
X95139328Y-73021960D01*
X95106337Y-73021931D01*
X95075577Y-73034641D01*
X95048634Y-73040000D01*
X94688356Y-73040000D01*
X96814178Y-70914178D01*
X96914860Y-70763496D01*
X99621956Y-68056400D01*
X101336560Y-68056400D01*
X101336560Y-69783600D01*
X101380838Y-70018917D01*
X101519910Y-70235041D01*
X101732110Y-70380031D01*
X101826927Y-70399232D01*
X101649268Y-70557964D01*
X101395291Y-71085209D01*
X101392642Y-71100974D01*
X101513783Y-71333000D01*
X102873000Y-71333000D01*
X102873000Y-71313000D01*
X103127000Y-71313000D01*
X103127000Y-71333000D01*
X104486217Y-71333000D01*
X104607358Y-71100974D01*
X104604709Y-71085209D01*
X104350732Y-70557964D01*
X104175155Y-70401093D01*
X104251317Y-70386762D01*
X104467441Y-70247690D01*
X104612431Y-70035490D01*
X104663440Y-69783600D01*
X104663440Y-68056400D01*
X104619162Y-67821083D01*
X104480090Y-67604959D01*
X104267890Y-67459969D01*
X104016000Y-67408960D01*
X101984000Y-67408960D01*
X101748683Y-67453238D01*
X101532559Y-67592310D01*
X101387569Y-67804510D01*
X101336560Y-68056400D01*
X99621956Y-68056400D01*
X102014178Y-65664178D01*
X102233118Y-65336510D01*
X102310001Y-64950000D01*
X102310000Y-64949995D01*
X102310000Y-62800000D01*
X102278040Y-62639328D01*
X102278069Y-62606337D01*
X102265359Y-62575577D01*
X102233118Y-62413490D01*
X102142106Y-62277281D01*
X102129507Y-62246788D01*
X102105992Y-62223232D01*
X102014178Y-62085822D01*
X101877968Y-61994810D01*
X101854659Y-61971460D01*
X101823920Y-61958696D01*
X101686510Y-61866882D01*
X101525842Y-61834923D01*
X101495370Y-61822270D01*
X101462086Y-61822241D01*
X101300000Y-61790000D01*
X101139328Y-61821960D01*
X101106337Y-61821931D01*
X101075577Y-61834641D01*
X100913490Y-61866882D01*
X100777281Y-61957894D01*
X100746788Y-61970493D01*
X100723232Y-61994008D01*
X100585822Y-62085822D01*
X100494810Y-62222032D01*
X100471460Y-62245341D01*
X100458696Y-62276080D01*
X100366882Y-62413490D01*
X100334923Y-62574158D01*
X100322270Y-62604630D01*
X100322241Y-62637914D01*
X100290000Y-62800000D01*
X100290000Y-64531644D01*
X95385822Y-69435822D01*
X95285140Y-69586504D01*
X93381644Y-71490000D01*
X92638356Y-71490000D01*
X95794178Y-68334178D01*
X96013118Y-68006510D01*
X96090000Y-67620000D01*
X96090000Y-59277603D01*
X96139670Y-59244415D01*
X96464526Y-58758234D01*
X96578600Y-58184745D01*
X96578600Y-57815255D01*
X96464526Y-57241766D01*
X96139670Y-56755585D01*
X95653489Y-56430729D01*
X95080000Y-56316655D01*
X94506511Y-56430729D01*
X94020330Y-56755585D01*
X93810000Y-57070366D01*
X93599670Y-56755585D01*
X93113489Y-56430729D01*
X92540000Y-56316655D01*
X91966511Y-56430729D01*
X91480330Y-56755585D01*
X91465500Y-56777780D01*
X91401927Y-56624302D01*
X91223299Y-56445673D01*
X90989910Y-56349000D01*
X90285750Y-56349000D01*
X90127000Y-56507750D01*
X90127000Y-57873000D01*
X90147000Y-57873000D01*
X90147000Y-58127000D01*
X90127000Y-58127000D01*
X90127000Y-59492250D01*
X90285750Y-59651000D01*
X90989910Y-59651000D01*
X91223299Y-59554327D01*
X91401927Y-59375698D01*
X91465500Y-59222220D01*
X91480330Y-59244415D01*
X91530000Y-59277603D01*
X91530000Y-60491644D01*
X87181644Y-64840000D01*
X78300000Y-64840000D01*
X77913490Y-64916882D01*
X77585822Y-65135822D01*
X77366882Y-65463490D01*
X77290000Y-65850000D01*
X77366882Y-66236510D01*
X77585822Y-66564178D01*
X77913490Y-66783118D01*
X78300000Y-66860000D01*
X87600000Y-66860000D01*
X87986510Y-66783118D01*
X88314178Y-66564178D01*
X93254178Y-61624178D01*
X93473118Y-61296510D01*
X93550000Y-60910000D01*
X93550000Y-59277603D01*
X93599670Y-59244415D01*
X93810000Y-58929634D01*
X94020330Y-59244415D01*
X94070000Y-59277603D01*
X94070000Y-67201644D01*
X90535822Y-70735822D01*
X90444810Y-70872032D01*
X90421460Y-70895341D01*
X90408696Y-70926080D01*
X90316882Y-71063490D01*
X90284923Y-71224158D01*
X90272270Y-71254630D01*
X90272241Y-71287914D01*
X90240000Y-71450000D01*
X90247957Y-71490000D01*
X83300000Y-71490000D01*
X82913490Y-71566882D01*
X82585822Y-71785822D01*
X82485822Y-71885822D01*
X82394810Y-72022032D01*
X82371460Y-72045341D01*
X82358696Y-72076080D01*
X82316935Y-72138579D01*
X79164178Y-68985822D01*
X78836510Y-68766882D01*
X78450000Y-68690000D01*
X78300000Y-68690000D01*
X78139328Y-68721960D01*
X78106337Y-68721931D01*
X78075577Y-68734641D01*
X77913490Y-68766882D01*
X77777281Y-68857894D01*
X77746788Y-68870493D01*
X77723232Y-68894008D01*
X77585822Y-68985822D01*
X77494810Y-69122032D01*
X77471460Y-69145341D01*
X77458696Y-69176080D01*
X77366882Y-69313490D01*
X77334923Y-69474158D01*
X77322270Y-69504630D01*
X77322241Y-69537914D01*
X77290000Y-69700000D01*
X77321960Y-69860672D01*
X77321931Y-69893663D01*
X77334641Y-69924423D01*
X77366882Y-70086510D01*
X77457894Y-70222719D01*
X77470493Y-70253212D01*
X77494008Y-70276768D01*
X77585822Y-70414178D01*
X77722032Y-70505190D01*
X77745341Y-70528540D01*
X77776080Y-70541304D01*
X77913490Y-70633118D01*
X77965010Y-70643366D01*
X80864535Y-73542891D01*
X80850000Y-73540000D01*
X80689328Y-73571960D01*
X80656337Y-73571931D01*
X80625577Y-73584641D01*
X80463490Y-73616882D01*
X80428891Y-73640000D01*
X73500000Y-73640000D01*
X73339328Y-73671960D01*
X73306337Y-73671931D01*
X73275577Y-73684641D01*
X73113490Y-73716882D01*
X72977281Y-73807894D01*
X72946788Y-73820493D01*
X72923232Y-73844008D01*
X72785822Y-73935822D01*
X72694810Y-74072032D01*
X72671460Y-74095341D01*
X72658696Y-74126080D01*
X72596908Y-74218552D01*
X68331992Y-69953636D01*
X68460672Y-69928040D01*
X68493663Y-69928069D01*
X68524423Y-69915359D01*
X68686510Y-69883118D01*
X68822719Y-69792106D01*
X68853212Y-69779507D01*
X68876768Y-69755992D01*
X69014178Y-69664178D01*
X69105190Y-69527968D01*
X69128540Y-69504659D01*
X69141304Y-69473920D01*
X69233118Y-69336510D01*
X69265077Y-69175842D01*
X69277730Y-69145370D01*
X69277759Y-69112086D01*
X69310000Y-68950000D01*
X69310000Y-66668356D01*
X70664178Y-65314178D01*
X70755190Y-65177968D01*
X70778540Y-65154659D01*
X70791304Y-65123920D01*
X70883118Y-64986510D01*
X70915077Y-64825842D01*
X70927730Y-64795370D01*
X70927759Y-64762086D01*
X70960000Y-64600000D01*
X70928040Y-64439328D01*
X70928069Y-64406337D01*
X70915359Y-64375577D01*
X70883118Y-64213490D01*
X70792106Y-64077281D01*
X70787305Y-64065661D01*
X71040000Y-64318356D01*
X71040000Y-68550000D01*
X71116882Y-68936510D01*
X71335822Y-69264178D01*
X72235822Y-70164178D01*
X72372032Y-70255190D01*
X72395341Y-70278540D01*
X72426080Y-70291304D01*
X72563490Y-70383118D01*
X72724158Y-70415077D01*
X72754630Y-70427730D01*
X72787914Y-70427759D01*
X72950000Y-70460000D01*
X73110672Y-70428040D01*
X73143663Y-70428069D01*
X73174423Y-70415359D01*
X73336510Y-70383118D01*
X73472719Y-70292106D01*
X73503212Y-70279507D01*
X73526768Y-70255992D01*
X73664178Y-70164178D01*
X73755190Y-70027968D01*
X73778540Y-70004659D01*
X73791304Y-69973920D01*
X73883118Y-69836510D01*
X73915077Y-69675842D01*
X73927730Y-69645370D01*
X73927759Y-69612086D01*
X73960000Y-69450000D01*
X73928040Y-69289328D01*
X73928069Y-69256337D01*
X73915359Y-69225577D01*
X73883118Y-69063490D01*
X73792106Y-68927281D01*
X73779507Y-68896788D01*
X73755992Y-68873232D01*
X73664178Y-68735822D01*
X73060000Y-68131644D01*
X73060000Y-63900000D01*
X72983118Y-63513490D01*
X72764178Y-63185822D01*
X69964178Y-60385822D01*
X69827968Y-60294810D01*
X69804659Y-60271460D01*
X69773920Y-60258696D01*
X69636510Y-60166882D01*
X69475842Y-60134923D01*
X69445370Y-60122270D01*
X69412086Y-60122241D01*
X69250000Y-60090000D01*
X69089328Y-60121960D01*
X69056337Y-60121931D01*
X69025577Y-60134641D01*
X68863490Y-60166882D01*
X68727281Y-60257894D01*
X68696788Y-60270493D01*
X68673232Y-60294008D01*
X68535822Y-60385822D01*
X68444810Y-60522032D01*
X68421460Y-60545341D01*
X68408696Y-60576080D01*
X68316882Y-60713490D01*
X68284923Y-60874158D01*
X68272270Y-60904630D01*
X68272241Y-60937914D01*
X68240000Y-61100000D01*
X68271960Y-61260672D01*
X68271931Y-61293663D01*
X68284641Y-61324423D01*
X68316882Y-61486510D01*
X68407894Y-61622719D01*
X68420493Y-61653212D01*
X68444008Y-61676768D01*
X68535822Y-61814178D01*
X70484899Y-63763255D01*
X70473920Y-63758696D01*
X70336510Y-63666882D01*
X70175842Y-63634923D01*
X70145370Y-63622270D01*
X70112086Y-63622241D01*
X69950000Y-63590000D01*
X69789328Y-63621960D01*
X69756337Y-63621931D01*
X69725577Y-63634641D01*
X69563490Y-63666882D01*
X69427281Y-63757894D01*
X69396788Y-63770493D01*
X69373232Y-63794008D01*
X69235822Y-63885822D01*
X67585822Y-65535822D01*
X67366882Y-65863490D01*
X67290000Y-66250000D01*
X67290000Y-68911644D01*
X50614178Y-52235822D01*
X50477968Y-52144810D01*
X50454659Y-52121460D01*
X50423920Y-52108696D01*
X50286510Y-52016882D01*
X50125842Y-51984923D01*
X50095370Y-51972270D01*
X50062086Y-51972241D01*
X49900000Y-51940000D01*
X49739328Y-51971960D01*
X49706337Y-51971931D01*
X49675577Y-51984641D01*
X49513490Y-52016882D01*
X49377281Y-52107894D01*
X49346788Y-52120493D01*
X49323232Y-52144008D01*
X49185822Y-52235822D01*
X49150000Y-52289434D01*
X49150000Y-48122217D01*
X49199670Y-48089029D01*
X49410000Y-47774248D01*
X49620330Y-48089029D01*
X49679685Y-48128689D01*
X49746882Y-48466510D01*
X49965822Y-48794178D01*
X56385822Y-55214178D01*
X56713490Y-55433118D01*
X57100000Y-55510000D01*
X59550000Y-55510000D01*
X59710672Y-55478040D01*
X59743663Y-55478069D01*
X59774423Y-55465359D01*
X59936510Y-55433118D01*
X60072719Y-55342106D01*
X60103212Y-55329507D01*
X60126768Y-55305992D01*
X60264178Y-55214178D01*
X60355190Y-55077968D01*
X60378540Y-55054659D01*
X60391304Y-55023920D01*
X60483118Y-54886510D01*
X60515077Y-54725842D01*
X60527730Y-54695370D01*
X60527759Y-54662086D01*
X60560000Y-54500000D01*
X60528040Y-54339328D01*
X60528069Y-54306337D01*
X60515359Y-54275577D01*
X60483118Y-54113490D01*
X60479058Y-54107414D01*
X63035822Y-56664178D01*
X63172032Y-56755190D01*
X63195341Y-56778540D01*
X63226080Y-56791304D01*
X63363490Y-56883118D01*
X63524158Y-56915077D01*
X63554630Y-56927730D01*
X63587914Y-56927759D01*
X63750000Y-56960000D01*
X63910672Y-56928040D01*
X63943663Y-56928069D01*
X63974423Y-56915359D01*
X64136510Y-56883118D01*
X64272719Y-56792106D01*
X64303212Y-56779507D01*
X64326768Y-56755992D01*
X64464178Y-56664178D01*
X64555190Y-56527968D01*
X64578540Y-56504659D01*
X64591304Y-56473920D01*
X64683118Y-56336510D01*
X64715077Y-56175842D01*
X64727730Y-56145370D01*
X64727759Y-56112086D01*
X64760000Y-55950000D01*
X64728040Y-55789328D01*
X64728069Y-55756337D01*
X64715359Y-55725577D01*
X64683118Y-55563490D01*
X64592106Y-55427281D01*
X64579507Y-55396788D01*
X64555992Y-55373232D01*
X64464178Y-55235822D01*
X57472549Y-48244193D01*
X57726511Y-48413885D01*
X58300000Y-48527959D01*
X58873489Y-48413885D01*
X59359670Y-48089029D01*
X59570000Y-47774248D01*
X59780330Y-48089029D01*
X60266511Y-48413885D01*
X60840000Y-48527959D01*
X61413489Y-48413885D01*
X61899670Y-48089029D01*
X62110000Y-47774248D01*
X62320330Y-48089029D01*
X62806511Y-48413885D01*
X63380000Y-48527959D01*
X63953489Y-48413885D01*
X64439670Y-48089029D01*
X64650000Y-47774248D01*
X64860330Y-48089029D01*
X65346511Y-48413885D01*
X65920000Y-48527959D01*
X66493489Y-48413885D01*
X66979670Y-48089029D01*
X67190000Y-47774248D01*
X67400330Y-48089029D01*
X67886511Y-48413885D01*
X68460000Y-48527959D01*
X69033489Y-48413885D01*
X69519670Y-48089029D01*
X69730000Y-47774248D01*
X69940330Y-48089029D01*
X70426511Y-48413885D01*
X71000000Y-48527959D01*
X71573489Y-48413885D01*
X72059670Y-48089029D01*
X72270000Y-47774248D01*
X72480330Y-48089029D01*
X72966511Y-48413885D01*
X73540000Y-48527959D01*
X74113489Y-48413885D01*
X74599670Y-48089029D01*
X74810000Y-47774248D01*
X75020330Y-48089029D01*
X75070000Y-48122217D01*
X75070000Y-52049181D01*
X75040000Y-52200000D01*
X75071960Y-52360672D01*
X75071931Y-52393663D01*
X75084641Y-52424423D01*
X75116882Y-52586510D01*
X75207894Y-52722719D01*
X75220493Y-52753212D01*
X75244008Y-52776768D01*
X75335822Y-52914178D01*
X75472032Y-53005190D01*
X75495341Y-53028540D01*
X75526080Y-53041304D01*
X75663490Y-53133118D01*
X75824158Y-53165077D01*
X75854630Y-53177730D01*
X75887914Y-53177759D01*
X76050000Y-53210000D01*
X76210672Y-53178040D01*
X76243663Y-53178069D01*
X76274423Y-53165359D01*
X76436510Y-53133118D01*
X76572719Y-53042106D01*
X76603212Y-53029507D01*
X76626768Y-53005992D01*
X76764178Y-52914178D01*
X76794178Y-52884178D01*
X77013118Y-52556511D01*
X77090000Y-52170000D01*
X77090000Y-48596400D01*
X101336560Y-48596400D01*
X101336560Y-50323600D01*
X101380838Y-50558917D01*
X101519910Y-50775041D01*
X101732110Y-50920031D01*
X101826927Y-50939232D01*
X101649268Y-51097964D01*
X101395291Y-51625209D01*
X101392642Y-51640974D01*
X101513783Y-51873000D01*
X102873000Y-51873000D01*
X102873000Y-51853000D01*
X103127000Y-51853000D01*
X103127000Y-51873000D01*
X104486217Y-51873000D01*
X104607358Y-51640974D01*
X104604709Y-51625209D01*
X104350732Y-51097964D01*
X104175155Y-50941093D01*
X104251317Y-50926762D01*
X104467441Y-50787690D01*
X104612431Y-50575490D01*
X104663440Y-50323600D01*
X104663440Y-48596400D01*
X104619162Y-48361083D01*
X104480090Y-48144959D01*
X104267890Y-47999969D01*
X104016000Y-47948960D01*
X101984000Y-47948960D01*
X101748683Y-47993238D01*
X101532559Y-48132310D01*
X101387569Y-48344510D01*
X101336560Y-48596400D01*
X77090000Y-48596400D01*
X77090000Y-48122217D01*
X77139670Y-48089029D01*
X77350000Y-47774248D01*
X77560330Y-48089029D01*
X78046511Y-48413885D01*
X78620000Y-48527959D01*
X79193489Y-48413885D01*
X79679670Y-48089029D01*
X79890000Y-47774248D01*
X80100330Y-48089029D01*
X80586511Y-48413885D01*
X81160000Y-48527959D01*
X81733489Y-48413885D01*
X82219670Y-48089029D01*
X82430000Y-47774248D01*
X82640330Y-48089029D01*
X83126511Y-48413885D01*
X83700000Y-48527959D01*
X84273489Y-48413885D01*
X84759670Y-48089029D01*
X84970000Y-47774248D01*
X85180330Y-48089029D01*
X85666511Y-48413885D01*
X86240000Y-48527959D01*
X86813489Y-48413885D01*
X87299670Y-48089029D01*
X87510000Y-47774248D01*
X87720330Y-48089029D01*
X88206511Y-48413885D01*
X88780000Y-48527959D01*
X89353489Y-48413885D01*
X89839670Y-48089029D01*
X90050000Y-47774248D01*
X90260330Y-48089029D01*
X90746511Y-48413885D01*
X91320000Y-48527959D01*
X91893489Y-48413885D01*
X92379670Y-48089029D01*
X92704526Y-47602848D01*
X92818600Y-47029359D01*
X92818600Y-46970641D01*
X92704526Y-46397152D01*
X92379670Y-45910971D01*
X92108828Y-45730000D01*
X92379670Y-45549029D01*
X92704526Y-45062848D01*
X92818600Y-44489359D01*
X92818600Y-44430641D01*
X92704526Y-43857152D01*
X92472566Y-43510000D01*
X99931644Y-43510000D01*
X105290000Y-48868356D01*
X105290000Y-55061644D01*
X104281644Y-56070000D01*
X104277603Y-56070000D01*
X104244415Y-56020330D01*
X103929634Y-55810000D01*
X104244415Y-55599670D01*
X104569271Y-55113489D01*
X104683345Y-54540000D01*
X104569271Y-53966511D01*
X104244415Y-53480330D01*
X103934931Y-53273539D01*
X104350732Y-52902036D01*
X104604709Y-52374791D01*
X104607358Y-52359026D01*
X104486217Y-52127000D01*
X103127000Y-52127000D01*
X103127000Y-52147000D01*
X102873000Y-52147000D01*
X102873000Y-52127000D01*
X101513783Y-52127000D01*
X101392642Y-52359026D01*
X101395291Y-52374791D01*
X101649268Y-52902036D01*
X102065069Y-53273539D01*
X101755585Y-53480330D01*
X101723730Y-53528004D01*
X71011579Y-53480001D01*
X71010789Y-53480157D01*
X71010000Y-53480000D01*
X70817556Y-53518280D01*
X70624949Y-53556279D01*
X70624279Y-53556725D01*
X70623490Y-53556882D01*
X70464268Y-53663271D01*
X70446788Y-53670493D01*
X70433468Y-53683790D01*
X70296939Y-53774707D01*
X70296491Y-53775375D01*
X70295822Y-53775822D01*
X70285822Y-53785822D01*
X70194810Y-53922032D01*
X70171460Y-53945341D01*
X70158696Y-53976080D01*
X70066882Y-54113490D01*
X70034923Y-54274158D01*
X70022270Y-54304630D01*
X70022241Y-54337914D01*
X69990000Y-54500000D01*
X70021960Y-54660672D01*
X70021931Y-54693663D01*
X70034641Y-54724423D01*
X70066882Y-54886510D01*
X70157894Y-55022719D01*
X70170493Y-55053212D01*
X70194008Y-55076768D01*
X70285822Y-55214178D01*
X70422032Y-55305190D01*
X70445341Y-55328540D01*
X70476080Y-55341304D01*
X70613490Y-55433118D01*
X70774158Y-55465077D01*
X70804630Y-55477730D01*
X70837914Y-55477759D01*
X71000000Y-55510000D01*
X71049952Y-55500064D01*
X81255629Y-55516015D01*
X76035822Y-60735822D01*
X75816882Y-61063490D01*
X75740000Y-61450000D01*
X75740000Y-61500000D01*
X75771960Y-61660672D01*
X75771931Y-61693663D01*
X75784641Y-61724423D01*
X75816882Y-61886510D01*
X75907894Y-62022719D01*
X75920493Y-62053212D01*
X75944008Y-62076768D01*
X76035822Y-62214178D01*
X76172032Y-62305190D01*
X76195341Y-62328540D01*
X76226080Y-62341304D01*
X76363490Y-62433118D01*
X76524158Y-62465077D01*
X76554630Y-62477730D01*
X76587914Y-62477759D01*
X76718008Y-62503636D01*
X75827425Y-63394219D01*
X75713490Y-63416882D01*
X75577281Y-63507894D01*
X75546788Y-63520493D01*
X75523232Y-63544008D01*
X75385822Y-63635822D01*
X75294810Y-63772032D01*
X75271460Y-63795341D01*
X75258696Y-63826080D01*
X75166882Y-63963490D01*
X75134923Y-64124158D01*
X75122270Y-64154630D01*
X75122241Y-64187914D01*
X75090000Y-64350000D01*
X75121960Y-64510672D01*
X75121931Y-64543663D01*
X75134641Y-64574423D01*
X75166882Y-64736510D01*
X75257894Y-64872719D01*
X75270493Y-64903212D01*
X75294008Y-64926768D01*
X75385822Y-65064178D01*
X75522032Y-65155190D01*
X75545341Y-65178540D01*
X75576080Y-65191304D01*
X75713490Y-65283118D01*
X75874158Y-65315077D01*
X75904630Y-65327730D01*
X75937914Y-65327759D01*
X76100000Y-65360000D01*
X76300000Y-65360000D01*
X76686510Y-65283118D01*
X77014178Y-65064178D01*
X83792606Y-58285750D01*
X88501400Y-58285750D01*
X88501400Y-59142309D01*
X88598073Y-59375698D01*
X88776701Y-59554327D01*
X89010090Y-59651000D01*
X89714250Y-59651000D01*
X89873000Y-59492250D01*
X89873000Y-58127000D01*
X88660150Y-58127000D01*
X88501400Y-58285750D01*
X83792606Y-58285750D01*
X84964178Y-57114178D01*
X85055190Y-56977968D01*
X85078540Y-56954659D01*
X85091304Y-56923920D01*
X85135556Y-56857691D01*
X88501400Y-56857691D01*
X88501400Y-57714250D01*
X88660150Y-57873000D01*
X89873000Y-57873000D01*
X89873000Y-56507750D01*
X89714250Y-56349000D01*
X89010090Y-56349000D01*
X88776701Y-56445673D01*
X88598073Y-56624302D01*
X88501400Y-56857691D01*
X85135556Y-56857691D01*
X85183118Y-56786510D01*
X85215077Y-56625842D01*
X85227730Y-56595370D01*
X85227759Y-56562086D01*
X85260000Y-56400000D01*
X85228040Y-56239328D01*
X85228069Y-56206337D01*
X85215359Y-56175577D01*
X85183118Y-56013490D01*
X85092106Y-55877281D01*
X85079507Y-55846788D01*
X85055992Y-55823232D01*
X84964178Y-55685822D01*
X84827968Y-55594810D01*
X84804659Y-55571460D01*
X84773920Y-55558696D01*
X84718143Y-55521427D01*
X101721062Y-55548003D01*
X101755585Y-55599670D01*
X102070366Y-55810000D01*
X101755585Y-56020330D01*
X101430729Y-56506511D01*
X101316655Y-57080000D01*
X101430729Y-57653489D01*
X101755585Y-58139670D01*
X102070366Y-58350000D01*
X101755585Y-58560330D01*
X101722397Y-58610000D01*
X98001041Y-58610000D01*
X97936510Y-58566882D01*
X97775842Y-58534923D01*
X97745370Y-58522270D01*
X97712086Y-58522241D01*
X97550000Y-58490000D01*
X97389328Y-58521960D01*
X97356337Y-58521931D01*
X97325577Y-58534641D01*
X97163490Y-58566882D01*
X97027281Y-58657894D01*
X96996788Y-58670493D01*
X96973232Y-58694008D01*
X96835822Y-58785822D01*
X96744810Y-58922032D01*
X96721460Y-58945341D01*
X96708696Y-58976080D01*
X96616882Y-59113490D01*
X96584923Y-59274158D01*
X96572270Y-59304630D01*
X96572241Y-59337914D01*
X96540000Y-59500000D01*
X96571960Y-59660672D01*
X96571931Y-59693663D01*
X96584641Y-59724423D01*
X96616882Y-59886510D01*
X96707894Y-60022719D01*
X96720493Y-60053212D01*
X96744008Y-60076768D01*
X96835822Y-60214178D01*
X96955822Y-60334178D01*
X97283490Y-60553118D01*
X97670000Y-60630000D01*
X101722397Y-60630000D01*
X101755585Y-60679670D01*
X102241766Y-61004526D01*
X102815255Y-61118600D01*
X103184745Y-61118600D01*
X103758234Y-61004526D01*
X104244415Y-60679670D01*
X104569271Y-60193489D01*
X104683345Y-59620000D01*
X104569271Y-59046511D01*
X104244415Y-58560330D01*
X103929634Y-58350000D01*
X104244415Y-58139670D01*
X104277603Y-58090000D01*
X104361644Y-58090000D01*
X105490000Y-59218356D01*
X105490000Y-74331644D01*
X104291644Y-75530000D01*
X104277603Y-75530000D01*
X104244415Y-75480330D01*
X103929634Y-75270000D01*
X104244415Y-75059670D01*
X104569271Y-74573489D01*
X104683345Y-74000000D01*
X104569271Y-73426511D01*
X104244415Y-72940330D01*
X103934931Y-72733539D01*
X104350732Y-72362036D01*
X104604709Y-71834791D01*
X104607358Y-71819026D01*
X104486217Y-71587000D01*
X103127000Y-71587000D01*
X103127000Y-71607000D01*
X102873000Y-71607000D01*
X102873000Y-71587000D01*
X101513783Y-71587000D01*
X101392642Y-71819026D01*
X101395291Y-71834791D01*
X101649268Y-72362036D01*
X102065069Y-72733539D01*
X101755585Y-72940330D01*
X101430729Y-73426511D01*
X101316655Y-74000000D01*
X101430729Y-74573489D01*
X101755585Y-75059670D01*
X102070366Y-75270000D01*
X101755585Y-75480330D01*
X101430729Y-75966511D01*
X101316655Y-76540000D01*
X101430729Y-77113489D01*
X101755585Y-77599670D01*
X102070366Y-77810000D01*
X101755585Y-78020330D01*
X101722397Y-78070000D01*
X96300000Y-78070000D01*
X95913490Y-78146882D01*
X95585822Y-78365822D01*
X88961644Y-84990000D01*
X77350000Y-84990000D01*
X76963490Y-85066882D01*
X76635822Y-85285822D01*
X73665822Y-88255822D01*
X73446882Y-88583490D01*
X73426801Y-88684443D01*
X73320330Y-88755585D01*
X72995474Y-89241766D01*
X72881400Y-89815255D01*
X72881400Y-90184745D01*
X72995474Y-90758234D01*
X73320330Y-91244415D01*
X73806511Y-91569271D01*
X74380000Y-91683345D01*
X74953489Y-91569271D01*
X75439670Y-91244415D01*
X75650000Y-90929634D01*
X75860330Y-91244415D01*
X76346511Y-91569271D01*
X76920000Y-91683345D01*
X77493489Y-91569271D01*
X77979670Y-91244415D01*
X78190000Y-90929634D01*
X78400330Y-91244415D01*
X78886511Y-91569271D01*
X79460000Y-91683345D01*
X80033489Y-91569271D01*
X80519670Y-91244415D01*
X80726461Y-90934931D01*
X81097964Y-91350732D01*
X81625209Y-91604709D01*
X81640974Y-91607358D01*
X81873000Y-91486217D01*
X81873000Y-90127000D01*
X81853000Y-90127000D01*
X81853000Y-89873000D01*
X81873000Y-89873000D01*
X81873000Y-89853000D01*
X82127000Y-89853000D01*
X82127000Y-89873000D01*
X82147000Y-89873000D01*
X82147000Y-90127000D01*
X82127000Y-90127000D01*
X82127000Y-91486217D01*
X82359026Y-91607358D01*
X82374791Y-91604709D01*
X82902036Y-91350732D01*
X83058907Y-91175155D01*
X83073238Y-91251317D01*
X83212310Y-91467441D01*
X83424510Y-91612431D01*
X83676400Y-91663440D01*
X85403600Y-91663440D01*
X85638917Y-91619162D01*
X85855041Y-91480090D01*
X86000031Y-91267890D01*
X86051040Y-91016000D01*
X86051040Y-88984000D01*
X86006762Y-88748683D01*
X85917522Y-88610000D01*
X86531644Y-88610000D01*
X90635822Y-92714178D01*
X90963490Y-92933118D01*
X91350000Y-93010000D01*
X93920000Y-93010000D01*
X94306510Y-92933118D01*
X94634178Y-92714178D01*
X95707316Y-91641040D01*
X95920000Y-91683345D01*
X96493489Y-91569271D01*
X96979670Y-91244415D01*
X97190000Y-90929634D01*
X97400330Y-91244415D01*
X97886511Y-91569271D01*
X98460000Y-91683345D01*
X99033489Y-91569271D01*
X99519670Y-91244415D01*
X99726461Y-90934931D01*
X100097964Y-91350732D01*
X100625209Y-91604709D01*
X100640974Y-91607358D01*
X100873000Y-91486217D01*
X100873000Y-90127000D01*
X100853000Y-90127000D01*
X100853000Y-89873000D01*
X100873000Y-89873000D01*
X100873000Y-89853000D01*
X101127000Y-89853000D01*
X101127000Y-89873000D01*
X101147000Y-89873000D01*
X101147000Y-90127000D01*
X101127000Y-90127000D01*
X101127000Y-91486217D01*
X101359026Y-91607358D01*
X101374791Y-91604709D01*
X101902036Y-91350732D01*
X102058907Y-91175155D01*
X102073238Y-91251317D01*
X102212310Y-91467441D01*
X102424510Y-91612431D01*
X102676400Y-91663440D01*
X104403600Y-91663440D01*
X104638917Y-91619162D01*
X104855041Y-91480090D01*
X104990000Y-91282571D01*
X104990000Y-91581644D01*
X102331644Y-94240000D01*
X51431912Y-94240000D01*
X51466510Y-94233118D01*
X51794178Y-94014178D01*
X54167316Y-91641040D01*
X54380000Y-91683345D01*
X54953489Y-91569271D01*
X55439670Y-91244415D01*
X55650000Y-90929634D01*
X55860330Y-91244415D01*
X56346511Y-91569271D01*
X56920000Y-91683345D01*
X57493489Y-91569271D01*
X57979670Y-91244415D01*
X58190000Y-90929634D01*
X58400330Y-91244415D01*
X58886511Y-91569271D01*
X59460000Y-91683345D01*
X60033489Y-91569271D01*
X60519670Y-91244415D01*
X60726461Y-90934931D01*
X61097964Y-91350732D01*
X61625209Y-91604709D01*
X61640974Y-91607358D01*
X61873000Y-91486217D01*
X61873000Y-90127000D01*
X61853000Y-90127000D01*
X61853000Y-89873000D01*
X61873000Y-89873000D01*
X61873000Y-88513783D01*
X62127000Y-88513783D01*
X62127000Y-89873000D01*
X62147000Y-89873000D01*
X62147000Y-90127000D01*
X62127000Y-90127000D01*
X62127000Y-91486217D01*
X62359026Y-91607358D01*
X62374791Y-91604709D01*
X62902036Y-91350732D01*
X63058907Y-91175155D01*
X63073238Y-91251317D01*
X63212310Y-91467441D01*
X63424510Y-91612431D01*
X63676400Y-91663440D01*
X65403600Y-91663440D01*
X65638917Y-91619162D01*
X65855041Y-91480090D01*
X66000031Y-91267890D01*
X66051040Y-91016000D01*
X66051040Y-88984000D01*
X66006762Y-88748683D01*
X65867690Y-88532559D01*
X65655490Y-88387569D01*
X65403600Y-88336560D01*
X63676400Y-88336560D01*
X63441083Y-88380838D01*
X63224959Y-88519910D01*
X63079969Y-88732110D01*
X63060768Y-88826927D01*
X62902036Y-88649268D01*
X62374791Y-88395291D01*
X62359026Y-88392642D01*
X62127000Y-88513783D01*
X61873000Y-88513783D01*
X61640974Y-88392642D01*
X61625209Y-88395291D01*
X61097964Y-88649268D01*
X60726461Y-89065069D01*
X60519670Y-88755585D01*
X60470000Y-88722397D01*
X60470000Y-80508356D01*
X65214178Y-75764178D01*
X65305190Y-75627968D01*
X65328540Y-75604659D01*
X65341304Y-75573920D01*
X65433118Y-75436510D01*
X65465077Y-75275842D01*
X65477730Y-75245370D01*
X65477759Y-75212086D01*
X65510000Y-75050000D01*
X65478040Y-74889328D01*
X65478069Y-74856337D01*
X65465359Y-74825577D01*
X65433118Y-74663490D01*
X65342106Y-74527281D01*
X65329507Y-74496788D01*
X65305992Y-74473232D01*
X65214178Y-74335822D01*
X65077968Y-74244810D01*
X65054659Y-74221460D01*
X65023920Y-74208696D01*
X64886510Y-74116882D01*
X64725842Y-74084923D01*
X64695370Y-74072270D01*
X64662086Y-74072241D01*
X64500000Y-74040000D01*
X64339328Y-74071960D01*
X64306337Y-74071931D01*
X64275577Y-74084641D01*
X64113490Y-74116882D01*
X63977281Y-74207894D01*
X63946788Y-74220493D01*
X63923232Y-74244008D01*
X63785822Y-74335822D01*
X58745822Y-79375822D01*
X58526882Y-79703490D01*
X58450000Y-80090000D01*
X58450000Y-88722397D01*
X58400330Y-88755585D01*
X58190000Y-89070366D01*
X57979670Y-88755585D01*
X57493489Y-88430729D01*
X56920000Y-88316655D01*
X56346511Y-88430729D01*
X55860330Y-88755585D01*
X55650000Y-89070366D01*
X55439670Y-88755585D01*
X54953489Y-88430729D01*
X54380000Y-88316655D01*
X53806511Y-88430729D01*
X53320330Y-88755585D01*
X52995474Y-89241766D01*
X52881400Y-89815255D01*
X52881400Y-90070244D01*
X50661644Y-92290000D01*
X37868356Y-92290000D01*
X37212463Y-91634107D01*
X37460000Y-91683345D01*
X38033489Y-91569271D01*
X38519670Y-91244415D01*
X38730000Y-90929634D01*
X38940330Y-91244415D01*
X39426511Y-91569271D01*
X40000000Y-91683345D01*
X40573489Y-91569271D01*
X41059670Y-91244415D01*
X41266461Y-90934931D01*
X41637964Y-91350732D01*
X42165209Y-91604709D01*
X42180974Y-91607358D01*
X42413000Y-91486217D01*
X42413000Y-90127000D01*
X42393000Y-90127000D01*
X42393000Y-89873000D01*
X42413000Y-89873000D01*
X42413000Y-88513783D01*
X42667000Y-88513783D01*
X42667000Y-89873000D01*
X42687000Y-89873000D01*
X42687000Y-90127000D01*
X42667000Y-90127000D01*
X42667000Y-91486217D01*
X42899026Y-91607358D01*
X42914791Y-91604709D01*
X43442036Y-91350732D01*
X43598907Y-91175155D01*
X43613238Y-91251317D01*
X43752310Y-91467441D01*
X43964510Y-91612431D01*
X44216400Y-91663440D01*
X45943600Y-91663440D01*
X46178917Y-91619162D01*
X46395041Y-91480090D01*
X46540031Y-91267890D01*
X46591040Y-91016000D01*
X46591040Y-88984000D01*
X46546762Y-88748683D01*
X46407690Y-88532559D01*
X46195490Y-88387569D01*
X45943600Y-88336560D01*
X44216400Y-88336560D01*
X43981083Y-88380838D01*
X43764959Y-88519910D01*
X43619969Y-88732110D01*
X43600768Y-88826927D01*
X43442036Y-88649268D01*
X42914791Y-88395291D01*
X42899026Y-88392642D01*
X42667000Y-88513783D01*
X42413000Y-88513783D01*
X42282636Y-88445720D01*
X45614178Y-85114178D01*
X45705191Y-84977967D01*
X45728540Y-84954659D01*
X45741303Y-84923921D01*
X45833118Y-84786511D01*
X45865077Y-84625841D01*
X45877730Y-84595370D01*
X45877759Y-84562086D01*
X45910000Y-84400000D01*
X45878040Y-84239328D01*
X45878069Y-84206337D01*
X45865359Y-84175577D01*
X45833118Y-84013490D01*
X45742106Y-83877281D01*
X45729507Y-83846788D01*
X45705992Y-83823232D01*
X45614178Y-83685822D01*
X45477968Y-83594810D01*
X45454659Y-83571460D01*
X45423920Y-83558696D01*
X45286510Y-83466882D01*
X45125842Y-83434923D01*
X45095370Y-83422270D01*
X45062086Y-83422241D01*
X44900000Y-83390000D01*
X44739328Y-83421960D01*
X44706337Y-83421931D01*
X44675577Y-83434641D01*
X44513489Y-83466882D01*
X44377280Y-83557894D01*
X44346788Y-83570493D01*
X44323233Y-83594007D01*
X44185822Y-83685822D01*
X39444492Y-88427152D01*
X39426511Y-88430729D01*
X38940330Y-88755585D01*
X38730000Y-89070366D01*
X38519670Y-88755585D01*
X38470000Y-88722397D01*
X38470000Y-85708356D01*
X39464175Y-84714180D01*
X39464178Y-84714178D01*
X39595423Y-84517756D01*
X39683118Y-84386511D01*
X39760000Y-84000000D01*
X39760000Y-77542369D01*
X39874158Y-77565077D01*
X39904630Y-77577730D01*
X39937914Y-77577759D01*
X40100000Y-77610000D01*
X58231644Y-77610000D01*
X58235822Y-77614178D01*
X58372032Y-77705190D01*
X58395341Y-77728540D01*
X58426080Y-77741304D01*
X58563490Y-77833118D01*
X58724158Y-77865077D01*
X58754630Y-77877730D01*
X58787914Y-77877759D01*
X58950000Y-77910000D01*
X59110672Y-77878040D01*
X59143663Y-77878069D01*
X59174423Y-77865359D01*
X59336510Y-77833118D01*
X59472719Y-77742106D01*
X59503212Y-77729507D01*
X59526768Y-77705992D01*
X59664178Y-77614178D01*
X59755190Y-77477968D01*
X59778540Y-77454659D01*
X59791304Y-77423920D01*
X59883118Y-77286510D01*
X59915077Y-77125842D01*
X59927730Y-77095370D01*
X59927759Y-77062086D01*
X59960000Y-76900000D01*
X59928040Y-76739328D01*
X59928069Y-76706337D01*
X59915359Y-76675577D01*
X59883118Y-76513490D01*
X59792106Y-76377281D01*
X59779507Y-76346788D01*
X59755992Y-76323232D01*
X59664178Y-76185822D01*
X59364178Y-75885822D01*
X59036510Y-75666882D01*
X58650000Y-75590000D01*
X40100000Y-75590000D01*
X39939328Y-75621960D01*
X39906337Y-75621931D01*
X39875577Y-75634641D01*
X39760000Y-75657631D01*
X39760000Y-75300000D01*
X39683118Y-74913490D01*
X39464178Y-74585822D01*
X39414178Y-74535822D01*
X39277968Y-74444810D01*
X39254659Y-74421460D01*
X39223920Y-74408696D01*
X39086510Y-74316882D01*
X38925842Y-74284923D01*
X38895370Y-74272270D01*
X38862086Y-74272241D01*
X38700000Y-74240000D01*
X38539328Y-74271960D01*
X38506337Y-74271931D01*
X38475577Y-74284641D01*
X38313490Y-74316882D01*
X38177281Y-74407894D01*
X38146788Y-74420493D01*
X38123232Y-74444008D01*
X37985822Y-74535822D01*
X37894810Y-74672032D01*
X37871460Y-74695341D01*
X37858696Y-74726080D01*
X37766882Y-74863490D01*
X37734923Y-75024158D01*
X37722270Y-75054630D01*
X37722241Y-75087914D01*
X37690000Y-75250000D01*
X37721960Y-75410672D01*
X37721931Y-75443663D01*
X37734641Y-75474423D01*
X37740000Y-75501366D01*
X37740000Y-83581645D01*
X36745822Y-84575822D01*
X36526882Y-84903490D01*
X36450000Y-85290000D01*
X36450000Y-88722397D01*
X36400330Y-88755585D01*
X36190000Y-89070366D01*
X35979670Y-88755585D01*
X35930000Y-88722397D01*
X35930000Y-75300000D01*
X35853118Y-74913490D01*
X35634178Y-74585822D01*
X32668356Y-71620000D01*
X43316655Y-71620000D01*
X43430729Y-72193489D01*
X43755585Y-72679670D01*
X44241766Y-73004526D01*
X44815255Y-73118600D01*
X45184745Y-73118600D01*
X45758234Y-73004526D01*
X46244415Y-72679670D01*
X46569271Y-72193489D01*
X46683345Y-71620000D01*
X46659476Y-71500000D01*
X47590000Y-71500000D01*
X47590000Y-74400000D01*
X47621960Y-74560672D01*
X47621931Y-74593663D01*
X47634641Y-74624423D01*
X47666882Y-74786510D01*
X47757894Y-74922719D01*
X47770493Y-74953212D01*
X47794008Y-74976768D01*
X47885822Y-75114178D01*
X48022032Y-75205190D01*
X48045341Y-75228540D01*
X48076080Y-75241304D01*
X48213490Y-75333118D01*
X48374158Y-75365077D01*
X48404630Y-75377730D01*
X48437914Y-75377759D01*
X48600000Y-75410000D01*
X48760672Y-75378040D01*
X48793663Y-75378069D01*
X48824423Y-75365359D01*
X48986510Y-75333118D01*
X49122719Y-75242106D01*
X49153212Y-75229507D01*
X49176768Y-75205992D01*
X49314178Y-75114178D01*
X49405190Y-74977968D01*
X49428540Y-74954659D01*
X49441304Y-74923920D01*
X49533118Y-74786510D01*
X49565077Y-74625842D01*
X49577730Y-74595370D01*
X49577759Y-74562086D01*
X49610000Y-74400000D01*
X49610000Y-71918356D01*
X57664178Y-63864178D01*
X57755190Y-63727968D01*
X57778540Y-63704659D01*
X57791304Y-63673920D01*
X57883118Y-63536510D01*
X57915077Y-63375842D01*
X57927730Y-63345370D01*
X57927759Y-63312086D01*
X57960000Y-63150000D01*
X57928040Y-62989328D01*
X57928069Y-62956337D01*
X57915359Y-62925577D01*
X57883118Y-62763490D01*
X57792106Y-62627281D01*
X57779507Y-62596788D01*
X57755992Y-62573232D01*
X57664178Y-62435822D01*
X57527968Y-62344810D01*
X57504659Y-62321460D01*
X57473920Y-62308696D01*
X57336510Y-62216882D01*
X57175842Y-62184923D01*
X57145370Y-62172270D01*
X57112086Y-62172241D01*
X56950000Y-62140000D01*
X56789328Y-62171960D01*
X56756337Y-62171931D01*
X56725577Y-62184641D01*
X56563490Y-62216882D01*
X56427281Y-62307894D01*
X56396788Y-62320493D01*
X56373232Y-62344008D01*
X56235822Y-62435822D01*
X47885822Y-70785822D01*
X47666882Y-71113490D01*
X47590000Y-71500000D01*
X46659476Y-71500000D01*
X46569271Y-71046511D01*
X46244415Y-70560330D01*
X45934931Y-70353539D01*
X46350732Y-69982036D01*
X46604709Y-69454791D01*
X46607358Y-69439026D01*
X46486217Y-69207000D01*
X45127000Y-69207000D01*
X45127000Y-69227000D01*
X44873000Y-69227000D01*
X44873000Y-69207000D01*
X43513783Y-69207000D01*
X43392642Y-69439026D01*
X43395291Y-69454791D01*
X43649268Y-69982036D01*
X44065069Y-70353539D01*
X43755585Y-70560330D01*
X43430729Y-71046511D01*
X43316655Y-71620000D01*
X32668356Y-71620000D01*
X32641040Y-71592684D01*
X32683345Y-71380000D01*
X32569271Y-70806511D01*
X32244415Y-70320330D01*
X31758234Y-69995474D01*
X31184745Y-69881400D01*
X30815255Y-69881400D01*
X30241766Y-69995474D01*
X29755585Y-70320330D01*
X29430729Y-70806511D01*
X29316655Y-71380000D01*
X29430729Y-71953489D01*
X29755585Y-72439670D01*
X30070366Y-72650000D01*
X29755585Y-72860330D01*
X29430729Y-73346511D01*
X29316655Y-73920000D01*
X29430729Y-74493489D01*
X29755585Y-74979670D01*
X30070366Y-75190000D01*
X29755585Y-75400330D01*
X29430729Y-75886511D01*
X29316655Y-76460000D01*
X29430729Y-77033489D01*
X29755585Y-77519670D01*
X30065069Y-77726461D01*
X29649268Y-78097964D01*
X29395291Y-78625209D01*
X29392642Y-78640974D01*
X29513783Y-78873000D01*
X30873000Y-78873000D01*
X30873000Y-78853000D01*
X31127000Y-78853000D01*
X31127000Y-78873000D01*
X32486217Y-78873000D01*
X32607358Y-78640974D01*
X32604709Y-78625209D01*
X32350732Y-78097964D01*
X31934931Y-77726461D01*
X32244415Y-77519670D01*
X32569271Y-77033489D01*
X32683345Y-76460000D01*
X32569271Y-75886511D01*
X32244415Y-75400330D01*
X31929634Y-75190000D01*
X32244415Y-74979670D01*
X32569271Y-74493489D01*
X32588494Y-74396850D01*
X33910000Y-75718356D01*
X33910000Y-88722397D01*
X33860330Y-88755585D01*
X33535474Y-89241766D01*
X33421400Y-89815255D01*
X33421400Y-90184745D01*
X33473121Y-90444765D01*
X28660000Y-85631644D01*
X28660000Y-80676400D01*
X29336560Y-80676400D01*
X29336560Y-82403600D01*
X29380838Y-82638917D01*
X29519910Y-82855041D01*
X29732110Y-83000031D01*
X29984000Y-83051040D01*
X32016000Y-83051040D01*
X32251317Y-83006762D01*
X32467441Y-82867690D01*
X32612431Y-82655490D01*
X32663440Y-82403600D01*
X32663440Y-80676400D01*
X32619162Y-80441083D01*
X32480090Y-80224959D01*
X32267890Y-80079969D01*
X32173073Y-80060768D01*
X32350732Y-79902036D01*
X32604709Y-79374791D01*
X32607358Y-79359026D01*
X32486217Y-79127000D01*
X31127000Y-79127000D01*
X31127000Y-79147000D01*
X30873000Y-79147000D01*
X30873000Y-79127000D01*
X29513783Y-79127000D01*
X29392642Y-79359026D01*
X29395291Y-79374791D01*
X29649268Y-79902036D01*
X29824845Y-80058907D01*
X29748683Y-80073238D01*
X29532559Y-80212310D01*
X29387569Y-80424510D01*
X29336560Y-80676400D01*
X28660000Y-80676400D01*
X28660000Y-64216400D01*
X29336560Y-64216400D01*
X29336560Y-65943600D01*
X29380838Y-66178917D01*
X29519910Y-66395041D01*
X29732110Y-66540031D01*
X29984000Y-66591040D01*
X32016000Y-66591040D01*
X32251317Y-66546762D01*
X32467441Y-66407690D01*
X32612431Y-66195490D01*
X32663440Y-65943600D01*
X32663440Y-64216400D01*
X32619162Y-63981083D01*
X32480090Y-63764959D01*
X32267890Y-63619969D01*
X32173073Y-63600768D01*
X32350732Y-63442036D01*
X32604709Y-62914791D01*
X32607358Y-62899026D01*
X32486217Y-62667000D01*
X31127000Y-62667000D01*
X31127000Y-62687000D01*
X30873000Y-62687000D01*
X30873000Y-62667000D01*
X29513783Y-62667000D01*
X29392642Y-62899026D01*
X29395291Y-62914791D01*
X29649268Y-63442036D01*
X29824845Y-63598907D01*
X29748683Y-63613238D01*
X29532559Y-63752310D01*
X29387569Y-63964510D01*
X29336560Y-64216400D01*
X28660000Y-64216400D01*
X28660000Y-54920000D01*
X29316655Y-54920000D01*
X29430729Y-55493489D01*
X29755585Y-55979670D01*
X30070366Y-56190000D01*
X29755585Y-56400330D01*
X29430729Y-56886511D01*
X29316655Y-57460000D01*
X29430729Y-58033489D01*
X29755585Y-58519670D01*
X30070366Y-58730000D01*
X29755585Y-58940330D01*
X29430729Y-59426511D01*
X29316655Y-60000000D01*
X29430729Y-60573489D01*
X29755585Y-61059670D01*
X30065069Y-61266461D01*
X29649268Y-61637964D01*
X29395291Y-62165209D01*
X29392642Y-62180974D01*
X29513783Y-62413000D01*
X30873000Y-62413000D01*
X30873000Y-62393000D01*
X31127000Y-62393000D01*
X31127000Y-62413000D01*
X32486217Y-62413000D01*
X32607358Y-62180974D01*
X32604709Y-62165209D01*
X32350732Y-61637964D01*
X31934931Y-61266461D01*
X32244415Y-61059670D01*
X32569271Y-60573489D01*
X32683345Y-60000000D01*
X32569271Y-59426511D01*
X32244415Y-58940330D01*
X31929634Y-58730000D01*
X32244415Y-58519670D01*
X32569271Y-58033489D01*
X32683345Y-57460000D01*
X32569271Y-56886511D01*
X32244415Y-56400330D01*
X31929634Y-56190000D01*
X32244415Y-55979670D01*
X32569271Y-55493489D01*
X32683345Y-54920000D01*
X32569271Y-54346511D01*
X32244415Y-53860330D01*
X31758234Y-53535474D01*
X31184745Y-53421400D01*
X30815255Y-53421400D01*
X30241766Y-53535474D01*
X29755585Y-53860330D01*
X29430729Y-54346511D01*
X29316655Y-54920000D01*
X28660000Y-54920000D01*
X28660000Y-44618356D01*
X30868356Y-42410000D01*
X52381644Y-42410000D01*
X52956165Y-42984521D01*
M02*
