G04 #@! TF.FileFunction,Copper,L1,Top,Signal*
%FSLAX46Y46*%
G04 Gerber Fmt 4.6, Leading zero omitted, Abs format (unit mm)*
G04 Created by KiCad (PCBNEW 4.0.2+dfsg1-stable) date Thu 29 Mar 2018 09:38:32 PM EDT*
%MOMM*%
G01*
G04 APERTURE LIST*
%ADD10C,0.100000*%
%ADD11R,1.727200X2.032000*%
%ADD12O,1.727200X2.032000*%
%ADD13R,2.032000X1.727200*%
%ADD14O,2.032000X1.727200*%
%ADD15R,2.032000X2.032000*%
%ADD16O,2.032000X2.032000*%
%ADD17R,1.727200X1.727200*%
%ADD18O,1.727200X1.727200*%
%ADD19C,0.685800*%
%ADD20C,0.750000*%
G04 APERTURE END LIST*
D10*
D11*
X84540000Y-90000000D03*
D12*
X82000000Y-90000000D03*
X79460000Y-90000000D03*
X76920000Y-90000000D03*
X74380000Y-90000000D03*
D13*
X31000000Y-81540000D03*
D14*
X31000000Y-79000000D03*
X31000000Y-76460000D03*
X31000000Y-73920000D03*
X31000000Y-71380000D03*
D13*
X103000000Y-49460000D03*
D14*
X103000000Y-52000000D03*
X103000000Y-54540000D03*
X103000000Y-57080000D03*
X103000000Y-59620000D03*
D13*
X103000000Y-68920000D03*
D14*
X103000000Y-71460000D03*
X103000000Y-74000000D03*
X103000000Y-76540000D03*
X103000000Y-79080000D03*
D11*
X103540000Y-90000000D03*
D12*
X101000000Y-90000000D03*
X98460000Y-90000000D03*
X95920000Y-90000000D03*
X93380000Y-90000000D03*
D11*
X64540000Y-90000000D03*
D12*
X62000000Y-90000000D03*
X59460000Y-90000000D03*
X56920000Y-90000000D03*
X54380000Y-90000000D03*
D11*
X45080000Y-90000000D03*
D12*
X42540000Y-90000000D03*
X40000000Y-90000000D03*
X37460000Y-90000000D03*
X34920000Y-90000000D03*
D13*
X31000000Y-65080000D03*
D14*
X31000000Y-62540000D03*
X31000000Y-60000000D03*
X31000000Y-57460000D03*
X31000000Y-54920000D03*
D15*
X31460000Y-45000000D03*
D16*
X34000000Y-45000000D03*
D17*
X43060000Y-47000000D03*
D18*
X43060000Y-44460000D03*
X45600000Y-47000000D03*
X45600000Y-44460000D03*
X48140000Y-47000000D03*
X48140000Y-44460000D03*
X50680000Y-47000000D03*
X50680000Y-44460000D03*
X53220000Y-47000000D03*
X53220000Y-44460000D03*
X55760000Y-47000000D03*
X55760000Y-44460000D03*
X58300000Y-47000000D03*
X58300000Y-44460000D03*
X60840000Y-47000000D03*
X60840000Y-44460000D03*
X63380000Y-47000000D03*
X63380000Y-44460000D03*
X65920000Y-47000000D03*
X65920000Y-44460000D03*
X68460000Y-47000000D03*
X68460000Y-44460000D03*
X71000000Y-47000000D03*
X71000000Y-44460000D03*
X73540000Y-47000000D03*
X73540000Y-44460000D03*
X76080000Y-47000000D03*
X76080000Y-44460000D03*
X78620000Y-47000000D03*
X78620000Y-44460000D03*
X81160000Y-47000000D03*
X81160000Y-44460000D03*
X83700000Y-47000000D03*
X83700000Y-44460000D03*
X86240000Y-47000000D03*
X86240000Y-44460000D03*
X88780000Y-47000000D03*
X88780000Y-44460000D03*
X91320000Y-47000000D03*
X91320000Y-44460000D03*
D11*
X90000000Y-58000000D03*
D12*
X92540000Y-58000000D03*
X95080000Y-58000000D03*
D13*
X45000000Y-61460000D03*
D14*
X45000000Y-64000000D03*
X45000000Y-66540000D03*
X45000000Y-69080000D03*
X45000000Y-71620000D03*
D19*
X34300000Y-62350000D03*
X34300000Y-53000000D03*
X59550000Y-54500000D03*
X71000000Y-54500000D03*
X76050000Y-52200000D03*
X97550000Y-59500000D03*
X63750000Y-55950000D03*
X69250000Y-61100000D03*
X72950000Y-69450000D03*
X78300000Y-69700000D03*
X83950000Y-74000000D03*
X87050000Y-74050000D03*
X95300000Y-74000000D03*
X84250000Y-56400000D03*
X76100000Y-64350000D03*
X69950000Y-64600000D03*
X68300000Y-68950000D03*
X64500000Y-75050000D03*
X38700000Y-75250000D03*
X38750000Y-68000000D03*
X37000000Y-67146000D03*
X37000000Y-67146000D03*
X82200000Y-56000000D03*
X56950000Y-63150000D03*
X48600000Y-74400000D03*
X44900000Y-84400000D03*
X76750000Y-61500000D03*
X40100000Y-76600000D03*
X58950000Y-76900000D03*
X73500000Y-74650000D03*
X80850000Y-74550000D03*
X83200000Y-72600000D03*
X101300000Y-62800000D03*
X108150000Y-62550000D03*
X43000000Y-54400000D03*
X37600000Y-59850000D03*
X36100000Y-62400000D03*
X46500000Y-56150000D03*
X39600000Y-45850000D03*
X78350000Y-65850000D03*
X37400000Y-48000000D03*
X40250000Y-52250000D03*
X42750000Y-50300000D03*
X46650000Y-52950000D03*
X49900000Y-52950000D03*
X87500000Y-76050000D03*
X91250000Y-71450000D03*
D20*
X43060000Y-47000000D02*
X40300000Y-47000000D01*
X34300000Y-62350000D02*
X31570000Y-65080000D01*
X40300000Y-47000000D02*
X34300000Y-53000000D01*
X31570000Y-65080000D02*
X31000000Y-65080000D01*
X45000000Y-71620000D02*
X45000000Y-73800000D01*
X37016200Y-81783800D02*
X37016200Y-81600000D01*
X45000000Y-73800000D02*
X37016200Y-81783800D01*
X45080000Y-90000000D02*
X45080000Y-90180000D01*
X45080000Y-90180000D02*
X48400000Y-93500000D01*
X61040000Y-93500000D02*
X64540000Y-90000000D01*
X48400000Y-93500000D02*
X61040000Y-93500000D01*
X64540000Y-90000000D02*
X64700000Y-90000000D01*
X64700000Y-90000000D02*
X68100000Y-93400000D01*
X68100000Y-93400000D02*
X81140000Y-93400000D01*
X81140000Y-93400000D02*
X84540000Y-90000000D01*
X103540000Y-90000000D02*
X103540000Y-91710000D01*
X87740000Y-93200000D02*
X84540000Y-90000000D01*
X102050000Y-93200000D02*
X87740000Y-93200000D01*
X103540000Y-91710000D02*
X102050000Y-93200000D01*
X107300000Y-84474000D02*
X107300000Y-73067600D01*
X107300000Y-73067600D02*
X103152400Y-68920000D01*
X103152400Y-68920000D02*
X103000000Y-68920000D01*
X103540000Y-90000000D02*
X103540000Y-88234000D01*
X103540000Y-88234000D02*
X107300000Y-84474000D01*
X99100000Y-51594000D02*
X99100000Y-63406400D01*
X99100000Y-63406400D02*
X103000000Y-67306400D01*
X103000000Y-67306400D02*
X103000000Y-68920000D01*
X103000000Y-49460000D02*
X101234000Y-49460000D01*
X101234000Y-49460000D02*
X99100000Y-51594000D01*
X32826000Y-81600000D02*
X37016200Y-81600000D01*
X32766000Y-81540000D02*
X32826000Y-81600000D01*
X31000000Y-81540000D02*
X32766000Y-81540000D01*
X37016200Y-81600000D02*
X36832400Y-81600000D01*
X36832400Y-81600000D02*
X45080000Y-89847600D01*
X45080000Y-89847600D02*
X45080000Y-90000000D01*
X38450000Y-65200000D02*
X38450000Y-65222400D01*
X38450000Y-65222400D02*
X44847600Y-71620000D01*
X44847600Y-71620000D02*
X45000000Y-71620000D01*
X32886000Y-65200000D02*
X38450000Y-65200000D01*
X31000000Y-65080000D02*
X32766000Y-65080000D01*
X32766000Y-65080000D02*
X32886000Y-65200000D01*
X44847600Y-69080000D02*
X45000000Y-69080000D01*
X70950000Y-54450000D02*
X59550000Y-54500000D01*
X71000000Y-54500000D02*
X70950000Y-54450000D01*
X95920000Y-90000000D02*
X95920000Y-83620000D01*
X95920000Y-83620000D02*
X103000000Y-76540000D01*
X87700000Y-63850000D02*
X93380000Y-63850000D01*
X76050000Y-52200000D02*
X87700000Y-63850000D01*
X93380000Y-90000000D02*
X93380000Y-63850000D01*
X93380000Y-63850000D02*
X93380000Y-63670000D01*
X93380000Y-63670000D02*
X97550000Y-59500000D01*
X103000000Y-74000000D02*
X95300000Y-74000000D01*
X64100000Y-55950000D02*
X63750000Y-55950000D01*
X69250000Y-61100000D02*
X64100000Y-55950000D01*
X78050000Y-69450000D02*
X72950000Y-69450000D01*
X78300000Y-69700000D02*
X78050000Y-69450000D01*
X87000000Y-74000000D02*
X83950000Y-74000000D01*
X87050000Y-74050000D02*
X87000000Y-74000000D01*
X79460000Y-65620000D02*
X79460000Y-60710000D01*
X79460000Y-90000000D02*
X79460000Y-65620000D01*
X64590000Y-50750000D02*
X60840000Y-47000000D01*
X69500000Y-50750000D02*
X64590000Y-50750000D01*
X79460000Y-60710000D02*
X69500000Y-50750000D01*
X60840000Y-44460000D02*
X60840000Y-44060000D01*
X60840000Y-44060000D02*
X63950000Y-40950000D01*
X63950000Y-40950000D02*
X93850000Y-40950000D01*
X93850000Y-40950000D02*
X96700000Y-43800000D01*
X96700000Y-43800000D02*
X96700000Y-47000000D01*
X96700000Y-47000000D02*
X91300000Y-52400000D01*
X91300000Y-52400000D02*
X88250000Y-52400000D01*
X88250000Y-52400000D02*
X84250000Y-56400000D01*
X76100000Y-64350000D02*
X75850000Y-64600000D01*
X75850000Y-64600000D02*
X69950000Y-64600000D01*
X68300000Y-68950000D02*
X64500000Y-72750000D01*
X64500000Y-72750000D02*
X64500000Y-75050000D01*
X38750000Y-75200000D02*
X38700000Y-75250000D01*
X38750000Y-68000000D02*
X38750000Y-75200000D01*
X56920000Y-90000000D02*
X56920000Y-75920000D01*
X56920000Y-75920000D02*
X45000000Y-64000000D01*
X31000000Y-73920000D02*
X32830000Y-73920000D01*
X32830000Y-73920000D02*
X38750000Y-68000000D01*
X32766000Y-57460000D02*
X36140000Y-57460000D01*
X38247600Y-57400000D02*
X44847600Y-64000000D01*
X36140000Y-57460000D02*
X36200000Y-57400000D01*
X36200000Y-57400000D02*
X38247600Y-57400000D01*
X44847600Y-64000000D02*
X45000000Y-64000000D01*
X31000000Y-57460000D02*
X32766000Y-57460000D01*
X32766000Y-57460000D02*
X32806000Y-57500000D01*
X45600000Y-47000000D02*
X45600000Y-49393600D01*
X45600000Y-49393600D02*
X40073600Y-54920000D01*
X31000000Y-71380000D02*
X32766000Y-71380000D01*
X32766000Y-71380000D02*
X37000000Y-67146000D01*
X31000000Y-54920000D02*
X40073600Y-54920000D01*
X40073600Y-54920000D02*
X45000000Y-59846400D01*
X45000000Y-59846400D02*
X45000000Y-61460000D01*
X72650000Y-61450000D02*
X76700000Y-61450000D01*
X65100000Y-42250000D02*
X92650000Y-42250000D01*
X92650000Y-42250000D02*
X94550000Y-44150000D01*
X94550000Y-44150000D02*
X94550000Y-46350000D01*
X94550000Y-46350000D02*
X90100000Y-50800000D01*
X90100000Y-50800000D02*
X84150000Y-50800000D01*
X84150000Y-50800000D02*
X82200000Y-52750000D01*
X82200000Y-52750000D02*
X82200000Y-56000000D01*
X72650000Y-61450000D02*
X70950000Y-63150000D01*
X70950000Y-63150000D02*
X56950000Y-63150000D01*
X48600000Y-74400000D02*
X44900000Y-78100000D01*
X44900000Y-78100000D02*
X44900000Y-84400000D01*
X65100000Y-42250000D02*
X63380000Y-43970000D01*
X76700000Y-61450000D02*
X76750000Y-61500000D01*
X63380000Y-44460000D02*
X63380000Y-43970000D01*
X31000000Y-76460000D02*
X39960000Y-76460000D01*
X40100000Y-76600000D02*
X39960000Y-76460000D01*
X71250000Y-76900000D02*
X58950000Y-76900000D01*
X73500000Y-74650000D02*
X71250000Y-76900000D01*
X81250000Y-74550000D02*
X80850000Y-74550000D01*
X83200000Y-72600000D02*
X81250000Y-74550000D01*
X107900000Y-62800000D02*
X101300000Y-62800000D01*
X108150000Y-62550000D02*
X107900000Y-62800000D01*
X31000000Y-76460000D02*
X30847600Y-76460000D01*
X43534933Y-54450000D02*
X50850000Y-54450000D01*
X50850000Y-54450000D02*
X58300000Y-47000000D01*
X43000000Y-54400000D02*
X43484933Y-54400000D01*
X43484933Y-54400000D02*
X43534933Y-54450000D01*
X31000000Y-60000000D02*
X37450000Y-60000000D01*
X37450000Y-60000000D02*
X37600000Y-59850000D01*
X45000000Y-66540000D02*
X43240000Y-66540000D01*
X39100000Y-62400000D02*
X36100000Y-62400000D01*
X43240000Y-66540000D02*
X39100000Y-62400000D01*
X77650000Y-66500000D02*
X77700000Y-66500000D01*
X56850000Y-66500000D02*
X77650000Y-66500000D01*
X46500000Y-56150000D02*
X56850000Y-66500000D01*
X42800000Y-42650000D02*
X39600000Y-45850000D01*
X49200000Y-42650000D02*
X42800000Y-42650000D01*
X49200000Y-42650000D02*
X50680000Y-44130000D01*
X77700000Y-66500000D02*
X78350000Y-65850000D01*
X50680000Y-44460000D02*
X50680000Y-44130000D01*
X53220000Y-44460000D02*
X53220000Y-44270000D01*
X53220000Y-44270000D02*
X50250000Y-41300000D01*
X50250000Y-41300000D02*
X41150000Y-41300000D01*
X41150000Y-41300000D02*
X37400000Y-45050000D01*
X37400000Y-45050000D02*
X37400000Y-48000000D01*
X40250000Y-52250000D02*
X42200000Y-50300000D01*
X42200000Y-50300000D02*
X42750000Y-50300000D01*
X46650000Y-52950000D02*
X49900000Y-52950000D01*
X87500000Y-76050000D02*
X91250000Y-72300000D01*
X91250000Y-72300000D02*
X91250000Y-71450000D01*
M02*
