M48
;DRILL file {KiCad 4.0.6} date 04/09/18 21:25:26
;FORMAT={2:4/ absolute / inch / suppress leading zeros}
FMAT,2
INCH,TZ
T1C0.013
T2C0.028
T3C0.040
T4C0.043
T5C0.053
T6C0.055
T7C0.070
T8C0.118
T9C0.125
%
G90
G05
M72
T1
X30950Y-35710
X41170Y-43530
X43700Y-35200
X44360Y-29910
X45000Y-35200
X46420Y-31500
X46600Y-43900
X47300Y-30100
X48300Y-29700
X49500Y-43800
X50300Y-41400
X51300Y-28900
X52020Y-40410
X52610Y-42620
X52900Y-28500
X53000Y-34400
X53100Y-29800
X53569Y-31019
X53800Y-30405
X53805Y-40085
X53900Y-35200
X54100Y-29200
X54530Y-43920
X54720Y-42700
X54890Y-31004
X54900Y-29900
X55100Y-45200
X55215Y-41600
X56400Y-35000
X56485Y-39360
X57100Y-30400
X57100Y-34100
X57200Y-29100
X57256Y-42535
X57300Y-32700
X57400Y-41600
X57750Y-43600
X58000Y-30400
X58200Y-44900
X58368Y-35085
X58530Y-42490
X58558Y-39039
X58670Y-34434
X58760Y-31310
X58900Y-32600
X59100Y-29000
X59200Y-30300
X59300Y-36405
X59300Y-45145
X59324Y-39732
X59500Y-40800
X59540Y-28190
X59755Y-32305
X59800Y-39000
X60280Y-28150
X60288Y-32328
X60300Y-40100
X60510Y-33760
X60920Y-35760
X60950Y-33630
X61000Y-39000
X61337Y-35040
X61390Y-32690
X61399Y-33720
X61400Y-40600
X61565Y-29025
X61800Y-39300
X62020Y-34020
X62360Y-29510
X62370Y-35060
X62600Y-39200
X62600Y-40000
X62631Y-32791
X62865Y-38077
X63300Y-34700
X63316Y-32894
X63580Y-40420
X63700Y-37509
X63820Y-29100
X64100Y-39000
X64186Y-40849
X64200Y-34920
X64335Y-32956
X64640Y-39865
X64880Y-42860
X64940Y-41250
X65385Y-40885
X65666Y-40119
X65730Y-41920
X65735Y-29355
X65941Y-40824
X66046Y-31621
X66512Y-36728
X66520Y-34360
X66550Y-34840
X66600Y-39100
X66600Y-41800
X66724Y-29326
X66938Y-37202
X67140Y-40401
X67186Y-40835
X67400Y-31600
X67409Y-30011
X67473Y-35948
X67530Y-41290
X67613Y-37048
X67735Y-32931
X67750Y-39860
X67890Y-36460
X67891Y-44080
X68250Y-31250
X68330Y-34140
X68585Y-41645
X68588Y-38055
X69179Y-43340
X69281Y-43748
X69960Y-42429
X70135Y-31493
X70248Y-35750
X70300Y-37000
X70311Y-42740
X70720Y-42080
X70883Y-38135
X71148Y-43847
X71700Y-41300
X72080Y-42450
X72800Y-41600
X74200Y-32900
X74330Y-44820
X74342Y-38621
X74365Y-37265
X74380Y-34100
X74384Y-39990
X74390Y-40960
X74590Y-41825
X74780Y-44000
X75000Y-43250
X75060Y-45230
X75345Y-38175
X75354Y-42350
X75425Y-40233
X75500Y-33100
X75800Y-39400
X75810Y-44340
X75850Y-31250
X75900Y-30300
X75900Y-37700
X75900Y-40800
X76100Y-35900
X76276Y-40583
X78200Y-45400
X79000Y-45400
T2
X42900Y-35230
X42900Y-37230
X43980Y-36230
X45980Y-36230
T3
X42040Y-28320
X43040Y-28320
X44040Y-28320
X51530Y-43920
X51830Y-29630
X51830Y-30630
X51830Y-31630
X51830Y-32630
X51940Y-35410
X51940Y-36410
X51940Y-37410
X51940Y-38410
X51940Y-39410
X52530Y-43920
X53530Y-43920
X54240Y-31840
X54530Y-43920
X55050Y-34140
X55050Y-35140
X55050Y-36140
X55050Y-37140
X55050Y-38140
X55050Y-39140
X55240Y-31840
X55530Y-43920
X56240Y-31840
X56530Y-43920
X57240Y-31840
X57920Y-35760
X57940Y-37940
X58240Y-31840
X58920Y-35760
X58940Y-37940
X59030Y-41540
X59030Y-44410
X59240Y-31840
X59920Y-35760
X59940Y-37940
X60030Y-41540
X60030Y-44410
X60920Y-35760
X60940Y-37940
X61030Y-41540
X61030Y-44410
X61830Y-30800
X61920Y-35760
X61940Y-37940
X62030Y-41540
X62030Y-44410
X62830Y-30800
X63030Y-41540
X63030Y-44410
X63830Y-30800
X64030Y-41540
X64030Y-44410
X64830Y-30800
X65830Y-30800
X66830Y-30800
X68530Y-40440
X68530Y-44440
X68555Y-29325
X68555Y-33325
X68590Y-34885
X68590Y-38885
X69530Y-40440
X69530Y-44440
X69555Y-29325
X69555Y-33325
X69590Y-34885
X69590Y-38885
X70530Y-40440
X70530Y-44440
X70555Y-29325
X70555Y-33325
X70590Y-34885
X70590Y-38885
X71530Y-40440
X71530Y-44440
X71555Y-29325
X71555Y-33325
X71590Y-34885
X71590Y-38885
X72530Y-40440
X72530Y-44440
X72555Y-29325
X72555Y-33325
X72590Y-34885
X72590Y-38885
X73530Y-40440
X73530Y-44440
X73555Y-29325
X73555Y-33325
X73590Y-34885
X73590Y-38885
T4
X41250Y-34210
X41250Y-35210
X41250Y-36210
X41250Y-37210
X47305Y-27272
X48305Y-27272
X49250Y-31210
X49250Y-32210
X49250Y-33210
X49250Y-34210
X49250Y-35210
X49250Y-36210
X49250Y-37210
X49250Y-38210
X49250Y-39210
X49305Y-27272
X50305Y-27272
X50905Y-46285
X51305Y-27272
X51905Y-46285
X52305Y-27272
X52905Y-46285
X53305Y-27272
X53905Y-46285
X54305Y-27272
X54905Y-46285
X55305Y-27272
X55905Y-46285
X56305Y-27272
X56905Y-46285
X57905Y-27285
X57905Y-46285
X58905Y-27285
X59905Y-27285
X59905Y-46285
X60905Y-27285
X60905Y-46285
X61905Y-27285
X61905Y-46285
X62905Y-27285
X62905Y-46285
X63905Y-27285
X63905Y-46285
X64905Y-27285
X64905Y-46285
X64955Y-35285
X64955Y-36285
X64955Y-37285
X65905Y-46285
X65955Y-35285
X65955Y-36285
X65955Y-37285
X66905Y-27285
X66905Y-46285
X67905Y-27272
X68805Y-46285
X68905Y-27272
X69805Y-46285
X69905Y-27272
X70805Y-46285
X70905Y-27272
X71805Y-46285
X71905Y-27272
X72805Y-46285
X72905Y-27272
X73805Y-46285
X73905Y-27272
X74805Y-46285
X75805Y-46285
X76905Y-27272
X76905Y-28272
X76905Y-29272
X76905Y-30272
X76905Y-31272
X76905Y-32272
X76905Y-33272
X76905Y-34272
X76905Y-35272
X76905Y-36272
X76905Y-37272
X76905Y-38272
X76905Y-39272
X76905Y-40272
X76905Y-41272
X76905Y-42272
X76905Y-43272
X76905Y-44272
X77905Y-27272
X77905Y-28272
X77905Y-29272
X77905Y-30272
X77905Y-31272
X77905Y-32272
X77905Y-33272
X77905Y-34272
X77905Y-35272
X77905Y-36272
X77905Y-37272
X77905Y-38272
X77905Y-39272
X77905Y-40272
X77905Y-41272
X77905Y-42272
X77905Y-43272
X77905Y-44272
T5
X27564Y-36360
X29533Y-36360
X36470Y-36360
X38439Y-36360
T6
X24790Y-32190
X24790Y-34190
X24790Y-36190
X24790Y-38190
X24790Y-40190
X24790Y-42190
X27960Y-32840
X29960Y-32840
X31960Y-32840
X33960Y-32840
X35960Y-32840
X37960Y-32840
X38550Y-40870
X40550Y-40870
X42550Y-40870
X44550Y-40870
X46550Y-40870
X48550Y-40870
T7
X29950Y-40258
X29950Y-41510
X32899Y-40258
X32899Y-41510
T8
X28080Y-41608
X34769Y-41608
T9
X45405Y-46285
X45905Y-27285
X65905Y-33285
X65905Y-44285
X75405Y-27285
X77805Y-46285
T0
M30
